0
SECTION
2
HEADER
9
$INSUNITS
70
4
9
$ACADVER
1
AC1014
9
$HANDSEED
5
FFFF
0
ENDSEC
0
SECTION
2
TABLES
0
TABLE
2
VPORT
5
8
100
AcDbSymbolTable
0
ENDTAB
0
TABLE
2
LTYPE
5
5
100
AcDbSymbolTable
0
LTYPE
5
14
100
AcDbSymbolTableRecord
100
AcDbLinetypeTableRecord
2
BYBLOCK
70
0
0
LTYPE
5
15
100
AcDbSymbolTableRecord
100
AcDbLinetypeTableRecord
2
BYLAYER
70
0
0
ENDTAB
0
TABLE
2
LAYER
5
2
100
AcDbSymbolTable
70
2
0
LAYER
5
50
100
AcDbSymbolTableRecord
100
AcDbLayerTableRecord
2
0
70
0
6
CONTINUOUS
0
ENDTAB
0
TABLE
2
STYLE
5
3
100
AcDbSymbolTable
70
1
0
STYLE
5
11
100
AcDbSymbolTableRecord
100
AcDbTextStyleTableRecord
2
STANDARD
70
0
0
ENDTAB
0
TABLE
2
VIEW
5
6
100
AcDbSymbolTable
70
0
0
ENDTAB
0
TABLE
2
UCS
5
7
100
AcDbSymbolTable
70
0
0
ENDTAB
0
TABLE
2
APPID
5
9
100
AcDbSymbolTable
70
2
0
APPID
5
12
100
AcDbSymbolTableRecord
100
AcDbRegAppTableRecord
2
ACAD
70
0
0
ENDTAB
0
TABLE
2
DIMSTYLE
5
A
100
AcDbSymbolTable
70
1
0
ENDTAB
0
TABLE
2
BLOCK_RECORD
5
1
100
AcDbSymbolTable
70
1
0
BLOCK_RECORD
5
1F
100
AcDbSymbolTableRecord
100
AcDbBlockTableRecord
2
*MODEL_SPACE
0
BLOCK_RECORD
5
1B
100
AcDbSymbolTableRecord
100
AcDbBlockTableRecord
2
*PAPER_SPACE
0
ENDTAB
0
ENDSEC
0
SECTION
2
BLOCKS
0
BLOCK
5
20
100
AcDbEntity
100
AcDbBlockBegin
2
*MODEL_SPACE
0
ENDBLK
5
21
100
AcDbEntity
100
AcDbBlockEnd
0
BLOCK
5
1C
100
AcDbEntity
100
AcDbBlockBegin
2
*PAPER_SPACE
0
ENDBLK
5
1D
100
AcDbEntity
100
AcDbBlockEnd
0
ENDSEC
0
SECTION
2
ENTITIES
0
LINE
5
100
100
AcDbEntity
8
0
100
AcDbLine
10
-7.0389384197266702
20
48.740394490066699
30
0
11
61.961061580273338
21
48.740394490066699
31
0
0
LINE
5
101
100
AcDbEntity
8
0
100
AcDbLine
10
61.961061580273338
20
48.740394490066699
30
0
11
61.961061580273338
21
30.740394490066699
31
0
0
LINE
5
102
100
AcDbEntity
8
0
100
AcDbLine
10
61.961061580273338
20
30.740394490066699
30
0
11
-7.0389384197266702
21
30.740394490066699
31
0
0
LINE
5
103
100
AcDbEntity
8
0
100
AcDbLine
10
-7.0389384197266702
20
30.740394490066699
30
0
11
-7.0389384197266702
21
48.740394490066699
31
0
0
LINE
5
104
100
AcDbEntity
8
0
100
AcDbLine
10
-7.0389384197266702
20
48.740394490066699
30
0
11
61.961061580273338
21
30.740394490066699
31
0
0
LINE
5
105
100
AcDbEntity
8
0
100
AcDbLine
10
61.961061580273338
20
48.740394490066699
30
0
11
-7.0389384197266702
21
30.740394490066699
31
0
0
ARC
5
106
100
AcDbEntity
8
0
100
AcDbCircle
10
27.461061580273167
20
396.42391023905702
30
0
40
349.39100893351338
100
AcDbArc
50
265.06100024087397
51
272.1406086450354
0
LINE
5
107
100
AcDbEntity
8
0
100
AcDbLine
10
38.56556059474962
20
39.740394490066699
30
0
11
27.461061580273331
21
39.740394490066699
31
0
0
LINE
5
108
100
AcDbEntity
8
0
100
AcDbLine
10
27.461061580273331
20
45.209774601674425
30
0
11
27.461061580273331
21
39.740394490066699
31
0
0
ARC
5
109
100
AcDbEntity
8
0
100
AcDbCircle
10
27.461061580273167
20
-316.94312125892361
30
0
40
349.39100893351338
100
AcDbArc
50
84.333194792117865
51
92.374292727450097
0
ARC
5
110
100
AcDbEntity
8
0
100
AcDbCircle
10
-15.671257946414281
20
39.740394490066699
30
0
40
12.470643143432188
100
AcDbArc
50
-27.123221688355574
51
27.123221688356896
0
ARC
5
111
100
AcDbEntity
8
0
100
AcDbCircle
10
-2.7919789024936277
20
46.337642726519135
30
0
40
1.9999999999995666
100
AcDbArc
50
85.061000240864985
51
207.12322168837053
0
ARC
5
112
100
AcDbEntity
8
0
100
AcDbCircle
10
-2.7919789024929154
20
33.143146253614781
30
0
40
1.9999999999999662
100
AcDbArc
50
152.87677831164379
51
274.93899975912763
0
LINE
5
113
100
AcDbEntity
8
0
100
AcDbLine
10
61.961061580273338
20
30.740394490066699
30
0
11
61.961061580273338
21
48.740394490066699
31
0
0
ARC
5
114
100
AcDbEntity
8
0
100
AcDbCircle
10
70.593381106960948
20
39.740394490066699
30
0
40
12.470643143432197
100
AcDbArc
50
152.87677831164314
51
207.12322168835556
0
ARC
5
115
100
AcDbEntity
8
0
100
AcDbCircle
10
57.714102063039583
20
33.143146253614781
30
0
40
1.9999999999999682
100
AcDbArc
50
-94.93899975912764
51
27.123221688356324
0
ARC
5
116
100
AcDbEntity
8
0
100
AcDbCircle
10
57.714102063040293
20
46.337642726519135
30
0
40
1.9999999999995579
100
AcDbArc
50
-27.123221688370638
51
94.938999759135172
0
LINE
5
117
100
AcDbEntity
8
0
100
AcDbLine
10
41.548858837444733
20
48.740394490066699
30
0
11
43.548858837444733
21
48.740394490066699
31
0
0
LINE
5
118
100
AcDbEntity
8
0
100
AcDbLine
10
43.548858837444733
20
46.358627539332538
30
0
11
43.548858837444733
21
43.060737567718462
31
0
0
LINE
5
119
100
AcDbEntity
8
0
100
AcDbLine
10
42.548858837444726
20
42.060737567718469
30
0
11
42.548858837444726
21
42.060737567718469
31
0
0
LINE
5
120
100
AcDbEntity
8
0
100
AcDbLine
10
41.548858837444733
20
43.060737567718462
30
0
11
41.548858837444733
21
46.277414177193492
31
0
0
ARC
5
121
100
AcDbEntity
8
0
100
AcDbCircle
10
42.548858837444726
20
43.060737567718462
30
0
40
0.99999999999999645
100
AcDbArc
50
180
51
270
0
ARC
5
122
100
AcDbEntity
8
0
100
AcDbCircle
10
42.54885883744474
20
43.060737567718462
30
0
40
0.99999999999999645
100
AcDbArc
50
-90.00000000000081
51
0
0
ARC
5
123
100
AcDbEntity
8
0
100
AcDbCircle
10
40.548858837444811
20
46.277414177193521
30
0
40
0.99999999999992539
100
AcDbArc
50
0
51
92.140608645039507
0
ARC
5
124
100
AcDbEntity
8
0
100
AcDbCircle
10
46.535547491473181
20
108.18729395760032
30
0
40
60.860576483488074
100
AcDbArc
50
268.15959601362965
51
280.41901453175183
0
ARC
5
125
100
AcDbEntity
8
0
100
AcDbCircle
10
44.54885883744474
20
46.358627539332538
30
0
40
1.0000000000000095
100
AcDbArc
50
88.159596013629852
51
180
0
LINE
5
126
100
AcDbEntity
8
0
100
AcDbLine
10
11.94528481837885
20
33.147083354750642
30
0
11
11.94528481837885
21
36.008558330107604
31
0
0
LINE
5
127
100
AcDbEntity
8
0
100
AcDbLine
10
10.945284818378848
20
37.008558330107604
30
0
11
10.945284818378848
21
37.008558330107604
31
0
0
LINE
5
128
100
AcDbEntity
8
0
100
AcDbLine
10
9.94528481837885
20
36.008558330107604
30
0
11
9.94528481837885
21
33.018959837699377
31
0
0
ARC
5
129
100
AcDbEntity
8
0
100
AcDbCircle
10
12.945284818378793
20
33.147083354750613
30
0
40
0.99999999999994316
100
AcDbArc
50
180
51
272.37429272745459
0
ARC
5
130
100
AcDbEntity
8
0
100
AcDbCircle
10
8.6773769357958486
20
-41.858912955659981
30
0
40
73.87835206982092
100
AcDbArc
50
89.795000513546697
51
98.795938143624653
0
ARC
5
131
100
AcDbEntity
8
0
100
AcDbCircle
10
10.945284818378848
20
36.008558330107604
30
0
40
1.0000000000000009
100
AcDbArc
50
0
51
90
0
ARC
5
132
100
AcDbEntity
8
0
100
AcDbCircle
10
10.945284818378855
20
36.008558330107597
30
0
40
1.0000000000000053
100
AcDbArc
50
90.000000000000398
51
180
0
ARC
5
133
100
AcDbEntity
8
0
100
AcDbCircle
10
8.9452848183788376
20
33.018959837699377
30
0
40
1.00000000000001
100
AcDbArc
50
-90.204999486452692
51
0
0
ENDSEC
0
SECTION
2
OBJECTS
0
DICTIONARY
5
C
100
AcDbDictionary
3
ACAD_GROUP
350
D
3
ACAD_MLINESTYLE
350
17
0
DICTIONARY
5
D
100
AcDbDictionary
0
DICTIONARY
5
1A
330
C
100
AcDbDictionary
0
DICTIONARY
5
17
100
AcDbDictionary
0
ENDSEC
0
EOF
