0
SECTION
2
HEADER
9
$INSUNITS
70
4
9
$ACADVER
1
AC1014
9
$HANDSEED
5
FFFF
0
ENDSEC
0
SECTION
2
TABLES
0
TABLE
2
VPORT
5
8
100
AcDbSymbolTable
0
ENDTAB
0
TABLE
2
LTYPE
5
5
100
AcDbSymbolTable
0
LTYPE
5
14
100
AcDbSymbolTableRecord
100
AcDbLinetypeTableRecord
2
BYBLOCK
70
0
0
LTYPE
5
15
100
AcDbSymbolTableRecord
100
AcDbLinetypeTableRecord
2
BYLAYER
70
0
0
ENDTAB
0
TABLE
2
LAYER
5
2
100
AcDbSymbolTable
70
2
0
LAYER
5
50
100
AcDbSymbolTableRecord
100
AcDbLayerTableRecord
2
0
70
0
6
CONTINUOUS
0
ENDTAB
0
TABLE
2
STYLE
5
3
100
AcDbSymbolTable
70
1
0
STYLE
5
11
100
AcDbSymbolTableRecord
100
AcDbTextStyleTableRecord
2
STANDARD
70
0
0
ENDTAB
0
TABLE
2
VIEW
5
6
100
AcDbSymbolTable
70
0
0
ENDTAB
0
TABLE
2
UCS
5
7
100
AcDbSymbolTable
70
0
0
ENDTAB
0
TABLE
2
APPID
5
9
100
AcDbSymbolTable
70
2
0
APPID
5
12
100
AcDbSymbolTableRecord
100
AcDbRegAppTableRecord
2
ACAD
70
0
0
ENDTAB
0
TABLE
2
DIMSTYLE
5
A
100
AcDbSymbolTable
70
1
0
ENDTAB
0
TABLE
2
BLOCK_RECORD
5
1
100
AcDbSymbolTable
70
1
0
BLOCK_RECORD
5
1F
100
AcDbSymbolTableRecord
100
AcDbBlockTableRecord
2
*MODEL_SPACE
0
BLOCK_RECORD
5
1B
100
AcDbSymbolTableRecord
100
AcDbBlockTableRecord
2
*PAPER_SPACE
0
ENDTAB
0
ENDSEC
0
SECTION
2
BLOCKS
0
BLOCK
5
20
100
AcDbEntity
100
AcDbBlockBegin
2
*MODEL_SPACE
0
ENDBLK
5
21
100
AcDbEntity
100
AcDbBlockEnd
0
BLOCK
5
1C
100
AcDbEntity
100
AcDbBlockBegin
2
*PAPER_SPACE
0
ENDBLK
5
1D
100
AcDbEntity
100
AcDbBlockEnd
0
ENDSEC
0
SECTION
2
ENTITIES
0
LINE
5
100
100
AcDbEntity
8
0
100
AcDbLine
10
80.795741879739595
20
7.9999999999999991
30
0
11
-1.9999999999999938
21
8.0000000000000036
31
0
0
LINE
5
101
100
AcDbEntity
8
0
100
AcDbLine
10
-2.0000000000000071
20
-64
30
0
11
80.795741879739609
21
-63.999999999999986
31
0
0
LINE
5
102
100
AcDbEntity
8
0
100
AcDbLine
10
86.79574187973958
20
-57.999999999999986
30
0
11
86.79574187973958
21
2.0000000000000018
31
0
0
LINE
5
103
100
AcDbEntity
8
0
100
AcDbLine
10
-2.0000000000000107
20
8.0000000000000036
30
0
11
80.79574187973958
21
7.9999999999999938
31
0
0
LINE
5
104
100
AcDbEntity
8
0
100
AcDbLine
10
86.79574187973958
20
1.9999999999999929
30
0
11
86.79574187973958
21
-58.000000000000007
31
0
0
LINE
5
105
100
AcDbEntity
8
0
100
AcDbLine
10
80.79574187973958
20
-64
30
0
11
-2.0000000000000107
21
-64
31
0
0
LINE
5
106
100
AcDbEntity
8
0
100
AcDbLine
10
0
20
-53.000000000000007
30
0
11
0
21
-2.9999999999999982
31
0
0
ARC
5
107
100
AcDbEntity
8
0
100
AcDbCircle
10
-2.0000000000000151
20
-58.000000000000007
30
0
40
5.9999999999999964
100
AcDbArc
50
180
51
270.00000000000011
0
ARC
5
108
100
AcDbEntity
8
0
100
AcDbCircle
10
80.795741879739609
20
-58.000000000000007
30
0
40
5.9999999999999787
100
AcDbArc
50
-90
51
0
0
ARC
5
109
100
AcDbEntity
8
0
100
AcDbCircle
10
80.795741879739595
20
2.0000000000000027
30
0
40
5.9999999999999964
100
AcDbArc
50
0
51
90
0
ARC
5
110
100
AcDbEntity
8
0
100
AcDbCircle
10
-1.9999999999999791
20
1.9999999999999829
30
0
40
6.0000000000000213
100
AcDbArc
50
90.000000000000142
51
180
0
CIRCLE
5
111
100
AcDbEntity
8
0
100
AcDbCircle
10
-2.0000000000000284
20
-58.000000000000043
30
0
40
1.4999999999999991
0
CIRCLE
5
112
100
AcDbEntity
8
0
100
AcDbCircle
10
-2.0000000000000284
20
-58.000000000000043
30
0
40
1.4999999999999991
0
CIRCLE
5
113
100
AcDbEntity
8
0
100
AcDbCircle
10
72.379515702765985
20
-60.000000000000007
30
0
40
1.5000000000000036
0
CIRCLE
5
114
100
AcDbEntity
8
0
100
AcDbCircle
10
72.379515702765985
20
-60.000000000000007
30
0
40
1.5000000000000016
0
CIRCLE
5
115
100
AcDbEntity
8
0
100
AcDbCircle
10
-2.0000000000000107
20
2.0000000000000151
30
0
40
1.5000000000000004
0
CIRCLE
5
116
100
AcDbEntity
8
0
100
AcDbCircle
10
-2.0000000000000107
20
2.0000000000000151
30
0
40
1.5000000000000004
0
CIRCLE
5
117
100
AcDbEntity
8
0
100
AcDbCircle
10
72.795741879739538
20
3.9999999999999991
30
0
40
1.4999999999999947
0
CIRCLE
5
118
100
AcDbEntity
8
0
100
AcDbCircle
10
72.795741879739538
20
3.9999999999999991
30
0
40
1.4999999999999991
0
LINE
5
119
100
AcDbEntity
8
0
100
AcDbLine
10
5
20
-34.399377385370876
30
0
11
5
21
-21.600622614629131
31
0
0
LINE
5
120
100
AcDbEntity
8
0
100
AcDbLine
10
-6.0260604299770035
20
-40.513157797732049
30
0
11
3.0260604299770066
21
-37.218455247728599
31
0
0
LINE
5
121
100
AcDbEntity
8
0
100
AcDbLine
10
5
20
-36.5
30
0
11
5
21
-19.5
31
0
0
LINE
5
122
100
AcDbEntity
8
0
100
AcDbLine
10
-7.9999999999999991
20
-12.667764339910237
30
0
11
-7.9999999999999982
21
2.0000000000000151
31
0
0
LINE
5
123
100
AcDbEntity
8
0
100
AcDbLine
10
-7.9999999999999982
20
-58.000000000000028
30
0
11
-7.9999999999999982
21
-43.332235660089765
31
0
0
LINE
5
124
100
AcDbEntity
8
0
100
AcDbLine
10
3.0260604299770053
20
-18.781544752271412
30
0
11
-6.026060429977008
21
-15.486842202267962
31
0
0
LINE
5
125
100
AcDbEntity
8
0
100
AcDbLine
10
-7.9999999999999982
20
-14.768386954539366
30
0
11
-7.9999999999999982
21
2.0000000000000107
31
0
0
ARC
5
126
100
AcDbEntity
8
0
100
AcDbCircle
10
-4.999999999999984
20
-43.332235660089779
30
0
40
3.0000000000000075
100
AcDbArc
50
110.0000000000002
51
180
0
ARC
5
127
100
AcDbEntity
8
0
100
AcDbCircle
10
1.9999999999999956
20
-34.399377385370869
30
0
40
3.0000000000000049
100
AcDbArc
50
290.00000000000006
51
360
0
ARC
5
128
100
AcDbEntity
8
0
100
AcDbCircle
10
1.9999999999999982
20
-21.600622614629135
30
0
40
3.0000000000000018
100
AcDbArc
50
0
51
69.999999999999972
0
ARC
5
129
100
AcDbEntity
8
0
100
AcDbCircle
10
-5.0000000000000018
20
-12.667764339910239
30
0
40
2.9999999999999973
100
AcDbArc
50
180
51
249.99999999999997
0
CIRCLE
5
130
100
AcDbEntity
8
0
100
AcDbCircle
10
61.5
20
-52.5
30
0
40
1.4999999999999991
0
CIRCLE
5
131
100
AcDbEntity
8
0
100
AcDbCircle
10
3.5000000000000004
20
-52.5
30
0
40
1.4999999999999967
0
CIRCLE
5
132
100
AcDbEntity
8
0
100
AcDbCircle
10
3.5000000000000004
20
-3.5000000000000004
30
0
40
1.5000000000000002
0
CIRCLE
5
133
100
AcDbEntity
8
0
100
AcDbCircle
10
61.5
20
-3.5000000000000004
30
0
40
1.5
0
LINE
5
134
100
AcDbEntity
8
0
100
AcDbLine
10
86.79574187973958
20
-27.999999999999993
30
0
11
-8.6804571135899664
21
-28.000000000000007
31
0
0
LWPOLYLINE
5
135
100
AcDbEntity
8
0
100
AcDbPolyline
90
4
70
1
43
0.0
10
6.887483454195813
20
-58.278327403005292
10
62.8362129692715
20
-58.278327403005299
10
62.8362129692715
20
-61.778327403005299
10
6.887483454195813
20
-61.778327403005299
0
CIRCLE
5
136
100
AcDbEntity
8
0
100
AcDbCircle
10
49.576225335207759
20
-41.770707534340694
30
0
40
5
0
LINE
5
137
100
AcDbEntity
8
0
100
AcDbLine
10
49.576225335207759
20
-41.770707534340694
30
0
11
36.73170939954862
21
-41.770707534340694
31
0
0
LINE
5
138
100
AcDbEntity
8
0
100
AcDbLine
10
38.668969744665567
20
-44.270707534340694
30
0
11
50.138964990090813
21
-44.270707534340694
31
0
0
LINE
5
139
100
AcDbEntity
8
0
100
AcDbLine
10
50.138964990090813
20
-44.270707534340694
30
0
11
50.138964990090813
21
-39.270707534340694
31
0
0
LINE
5
140
100
AcDbEntity
8
0
100
AcDbLine
10
50.138964990090813
20
-39.270707534340694
30
0
11
38.668969744665567
21
-39.270707534340687
31
0
0
LINE
5
141
100
AcDbEntity
8
0
100
AcDbLine
10
36.168969744665567
20
-41.770707534340694
30
0
11
36.168969744665567
21
-41.770707534340694
31
0
0
LINE
5
142
100
AcDbEntity
8
0
100
AcDbLine
10
36.168969744665567
20
-44.270707534340694
30
0
11
50.138964990090813
21
-39.270707534340694
31
0
0
LINE
5
143
100
AcDbEntity
8
0
100
AcDbLine
10
50.138964990090813
20
-44.270707534340694
30
0
11
36.168969744665567
21
-39.270707534340694
31
0
0
ARC
5
144
100
AcDbEntity
8
0
100
AcDbCircle
10
38.668969744665574
20
-41.770707534340694
30
0
40
2.5000000000000044
100
AcDbArc
50
180
51
269.99999999999983
0
ARC
5
145
100
AcDbEntity
8
0
100
AcDbCircle
10
38.668969744665574
20
-41.770707534340694
30
0
40
2.5000000000000044
100
AcDbArc
50
90.000000000000171
51
180
0
CIRCLE
5
146
100
AcDbEntity
8
0
100
AcDbCircle
10
49.576225335207752
20
-14.229292465659302
30
0
40
5
0
LINE
5
147
100
AcDbEntity
8
0
100
AcDbLine
10
36.16896974466556
20
-11.729292465659306
30
0
11
50.138964990090798
21
-16.729292465659302
31
0
0
LINE
5
148
100
AcDbEntity
8
0
100
AcDbLine
10
38.66896974466556
20
-11.729292465659306
30
0
11
50.138964990090798
21
-11.729292465659302
31
0
0
LINE
5
149
100
AcDbEntity
8
0
100
AcDbLine
10
50.138964990090798
20
-16.729292465659302
30
0
11
38.668969744665567
21
-16.729292465659313
31
0
0
LINE
5
150
100
AcDbEntity
8
0
100
AcDbLine
10
50.138964990090798
20
-11.729292465659302
30
0
11
50.138964990090798
21
-16.729292465659302
31
0
0
LINE
5
151
100
AcDbEntity
8
0
100
AcDbLine
10
50.138964990090798
20
-11.729292465659302
30
0
11
36.168969744665567
21
-16.729292465659306
31
0
0
ARC
5
152
100
AcDbEntity
8
0
100
AcDbCircle
10
38.668969744665574
20
-14.229292465659306
30
0
40
2.5000000000000089
100
AcDbArc
50
180
51
269.99999999999983
0
ARC
5
153
100
AcDbEntity
8
0
100
AcDbCircle
10
38.668969744665574
20
-14.229292465659306
30
0
40
2.5
100
AcDbArc
50
90.000000000000327
51
180
0
LINE
5
154
100
AcDbEntity
8
0
100
AcDbLine
10
49.576225335207752
20
-14.229292465659302
30
0
11
36.731709399548613
21
-14.229292465659306
31
0
0
LINE
5
155
100
AcDbEntity
8
0
100
AcDbLine
10
36.168969744665567
20
-14.229292465659306
30
0
11
36.168969744665567
21
-14.229292465659306
31
0
0
LINE
5
156
100
AcDbEntity
8
0
100
AcDbLine
10
31.79958388173748
20
-35.224176164326522
30
0
11
31.79958388173748
21
-35.224176164326522
31
0
0
LINE
5
157
100
AcDbEntity
8
0
100
AcDbLine
10
33.294467932472159
20
-33.72418488866419
30
0
11
33.294467932472159
21
-22.167811596887589
31
0
0
LINE
5
158
100
AcDbEntity
8
0
100
AcDbLine
10
31.790013720352199
20
-20.667818210237382
30
0
11
31.790013720352199
21
-20.667818210237382
31
0
0
LINE
5
159
100
AcDbEntity
8
0
100
AcDbLine
10
30.295230971683395
20
-22.167809136972785
30
0
11
30.295230971683395
21
-33.724182480281804
31
0
0
LINE
5
160
100
AcDbEntity
8
0
100
AcDbLine
10
26.825187766627113
20
-39.188267511037765
30
0
11
26.825187766627113
21
-39.188267511037765
31
0
0
LINE
5
161
100
AcDbEntity
8
0
100
AcDbLine
10
28.295230971683395
20
-37.688566677392366
30
0
11
28.295230971683392
21
-18.27155532898125
31
0
0
LINE
5
162
100
AcDbEntity
8
0
100
AcDbLine
10
26.814222167553424
20
-16.771675555639597
30
0
11
26.814222167553424
21
-16.771675555639597
31
0
0
LINE
5
163
100
AcDbEntity
8
0
100
AcDbLine
10
25.344863764274397
20
-18.271362553833008
30
0
11
25.344863764274386
21
-37.688396564883874
31
0
0
ARC
5
164
100
AcDbEntity
8
0
100
AcDbCircle
10
31.795230971683388
20
-33.724182480281804
30
0
40
1.4999999999999947
100
AcDbArc
50
180
51
270.16626914983271
0
ARC
5
165
100
AcDbEntity
8
0
100
AcDbCircle
10
31.794467932472166
20
-33.72418488866419
30
0
40
1.4999999999999956
100
AcDbArc
50
-89.80458475373652
51
0
0
ARC
5
166
100
AcDbEntity
8
0
100
AcDbCircle
10
31.794467932472166
20
-22.167811596887589
30
0
40
1.4999999999999902
100
AcDbArc
50
0
51
90.17013862039488
0
ARC
5
167
100
AcDbEntity
8
0
100
AcDbCircle
10
31.795230971683388
20
-22.167809136972782
30
0
40
1.4999999999999942
100
AcDbArc
50
90.19928472310491
51
180
0
ARC
5
168
100
AcDbEntity
8
0
100
AcDbCircle
10
26.844863764274383
20
-37.688396564883874
30
0
40
1.4999999999999947
100
AcDbArc
50
180
51
269.24841069672436
0
ARC
5
169
100
AcDbEntity
8
0
100
AcDbCircle
10
26.795230971683395
20
-37.688566677392366
30
0
40
1.4999999999999969
100
AcDbArc
50
-88.855658642883071
51
0
0
ARC
5
170
100
AcDbEntity
8
0
100
AcDbCircle
10
26.795230971683395
20
-18.271555328981254
30
0
40
1.4999999999999947
100
AcDbArc
50
0
51
89.274570371061543
0
ARC
5
171
100
AcDbEntity
8
0
100
AcDbCircle
10
26.844863764274383
20
-18.271362553833011
30
0
40
1.4999999999999949
100
AcDbArc
50
91.17050419644076
51
180
0
LINE
5
172
100
AcDbEntity
8
0
100
AcDbLine
10
21.833987247520348
20
-42.590366002061792
30
0
11
21.833987247520348
21
-42.590366002061792
31
0
0
LINE
5
173
100
AcDbEntity
8
0
100
AcDbLine
10
23.34486376427439
20
-41.090405435452347
30
0
11
23.344863764274393
21
-15.115389271168812
31
0
0
LINE
5
174
100
AcDbEntity
8
0
100
AcDbLine
10
21.861058565514636
20
-13.615476697579002
30
0
11
21.861058565514636
21
-13.615476697579002
31
0
0
LINE
5
175
100
AcDbEntity
8
0
100
AcDbLine
10
20.346947028664225
20
-15.11541031761948
30
0
11
20.346947028664232
21
-41.090421988415713
31
0
0
LINE
5
176
100
AcDbEntity
8
0
100
AcDbLine
10
20.7423341465174
20
-42.500000000000028
30
0
11
23.7423341465174
21
-13.50000000000003
31
0
0
LINE
5
177
100
AcDbEntity
8
0
100
AcDbLine
10
23.742334146517393
20
-42.500000000000028
30
0
11
20.7423341465174
21
-13.50000000000003
31
0
0
ARC
5
178
100
AcDbEntity
8
0
100
AcDbCircle
10
21.846947028664246
20
-41.090421988415706
30
0
40
1.5000000000000124
100
AcDbArc
50
180
51
269.50496666576527
0
ARC
5
179
100
AcDbEntity
8
0
100
AcDbCircle
10
21.844863764274383
20
-41.090405435452354
30
0
40
1.4999999999999971
100
AcDbArc
50
-90.415455977843365
51
0
0
ARC
5
180
100
AcDbEntity
8
0
100
AcDbCircle
10
21.844863764274386
20
-15.115389271168809
30
0
40
1.500000000000008
100
AcDbArc
50
0
51
89.381392140837079
0
ARC
5
181
100
AcDbEntity
8
0
100
AcDbCircle
10
21.846947028664225
20
-15.11541031761948
30
0
40
1.5000000000000056
100
AcDbArc
50
89.46097104605748
51
180
0
LINE
5
182
100
AcDbEntity
8
0
100
AcDbLine
10
49.576225335207752
20
-14.229292465659302
30
0
11
49.576225335207759
21
-41.770707534340694
31
0
0
ENDSEC
0
SECTION
2
OBJECTS
0
DICTIONARY
5
C
100
AcDbDictionary
3
ACAD_GROUP
350
D
3
ACAD_MLINESTYLE
350
17
0
DICTIONARY
5
D
100
AcDbDictionary
0
DICTIONARY
5
1A
330
C
100
AcDbDictionary
0
DICTIONARY
5
17
100
AcDbDictionary
0
ENDSEC
0
EOF
