0
SECTION
2
HEADER
9
$INSUNITS
70
4
9
$ACADVER
1
AC1014
9
$HANDSEED
5
FFFF
0
ENDSEC
0
SECTION
2
TABLES
0
TABLE
2
VPORT
5
8
100
AcDbSymbolTable
0
ENDTAB
0
TABLE
2
LTYPE
5
5
100
AcDbSymbolTable
0
LTYPE
5
14
100
AcDbSymbolTableRecord
100
AcDbLinetypeTableRecord
2
BYBLOCK
70
0
0
LTYPE
5
15
100
AcDbSymbolTableRecord
100
AcDbLinetypeTableRecord
2
BYLAYER
70
0
0
ENDTAB
0
TABLE
2
LAYER
5
2
100
AcDbSymbolTable
70
2
0
LAYER
5
50
100
AcDbSymbolTableRecord
100
AcDbLayerTableRecord
2
0
70
0
6
CONTINUOUS
0
ENDTAB
0
TABLE
2
STYLE
5
3
100
AcDbSymbolTable
70
1
0
STYLE
5
11
100
AcDbSymbolTableRecord
100
AcDbTextStyleTableRecord
2
STANDARD
70
0
0
ENDTAB
0
TABLE
2
VIEW
5
6
100
AcDbSymbolTable
70
0
0
ENDTAB
0
TABLE
2
UCS
5
7
100
AcDbSymbolTable
70
0
0
ENDTAB
0
TABLE
2
APPID
5
9
100
AcDbSymbolTable
70
2
0
APPID
5
12
100
AcDbSymbolTableRecord
100
AcDbRegAppTableRecord
2
ACAD
70
0
0
ENDTAB
0
TABLE
2
DIMSTYLE
5
A
100
AcDbSymbolTable
70
1
0
ENDTAB
0
TABLE
2
BLOCK_RECORD
5
1
100
AcDbSymbolTable
70
1
0
BLOCK_RECORD
5
1F
100
AcDbSymbolTableRecord
100
AcDbBlockTableRecord
2
*MODEL_SPACE
0
BLOCK_RECORD
5
1B
100
AcDbSymbolTableRecord
100
AcDbBlockTableRecord
2
*PAPER_SPACE
0
ENDTAB
0
ENDSEC
0
SECTION
2
BLOCKS
0
BLOCK
5
20
100
AcDbEntity
100
AcDbBlockBegin
2
*MODEL_SPACE
0
ENDBLK
5
21
100
AcDbEntity
100
AcDbBlockEnd
0
BLOCK
5
1C
100
AcDbEntity
100
AcDbBlockBegin
2
*PAPER_SPACE
0
ENDBLK
5
1D
100
AcDbEntity
100
AcDbBlockEnd
0
ENDSEC
0
SECTION
2
ENTITIES
0
LINE
5
100
100
AcDbEntity
8
0
100
AcDbLine
10
7.3499999999999988
20
-56.000000000000014
30
0
11
57.650000776921395
21
-56.000000000000099
31
0
0
LINE
5
101
100
AcDbEntity
8
0
100
AcDbLine
10
83.79574187973958
20
-53.000000000000171
30
0
11
83.79574187973958
21
-2.9999999999999845
31
0
0
ARC
5
102
100
AcDbEntity
8
0
100
AcDbCircle
10
80.795741879739609
20
-53.000000000000171
30
0
40
2.9999999999999805
100
AcDbArc
50
-90
51
0
0
ARC
5
103
100
AcDbEntity
8
0
100
AcDbCircle
10
80.795741879739609
20
-2.9999999999999845
30
0
40
2.9999999999999716
100
AcDbArc
50
0
51
90
0
LINE
5
104
100
AcDbEntity
8
0
100
AcDbLine
10
86.79574187973958
20
1.9999999999999929
30
0
11
86.79574187973958
21
-58.000000000000007
31
0
0
LINE
5
105
100
AcDbEntity
8
0
100
AcDbLine
10
4.3368086899420177e-16
20
-53.000000000000007
30
0
11
4.163336342344337e-16
21
-39.74799917807313
31
0
0
LINE
5
106
100
AcDbEntity
8
0
100
AcDbLine
10
3.2507956612732563
20
-49.657070519701037
30
0
11
1.0330681129089128
21
-49.730446714082568
31
0
0
LINE
5
107
100
AcDbEntity
8
0
100
AcDbLine
10
6.3499999999999996
20
-52.655429820915245
30
0
11
6.3499999999999996
21
-55.000000000000014
31
0
0
LINE
5
108
100
AcDbEntity
8
0
100
AcDbLine
10
6.3499999999999996
20
-52.5
30
0
11
9.9408001944370401
21
-52.5
31
0
0
ARC
5
109
100
AcDbEntity
8
0
100
AcDbCircle
10
3.3500000000000107
20
-52.655429820915245
30
0
40
2.9999999999999893
100
AcDbArc
50
0
51
91.895008778584867
0
ARC
5
110
100
AcDbEntity
8
0
100
AcDbCircle
10
1.0000000000000007
20
-48.730993613677825
30
0
40
1.0000000000000033
100
AcDbArc
50
180
51
271.8950087785845
0
LINE
5
111
100
AcDbEntity
8
0
100
AcDbLine
10
0.65000000000000047
20
-3.5000000000000004
30
0
11
5.3184628782287893e-18
21
-3.6131770223763215
31
0
0
CIRCLE
5
112
100
AcDbEntity
8
0
100
AcDbCircle
10
3.5000000000000004
20
-52.5
30
0
40
1.5000000000000036
0
CIRCLE
5
113
100
AcDbEntity
8
0
100
AcDbCircle
10
61.5
20
-52.5
30
0
40
1.5000000000000036
0
CIRCLE
5
114
100
AcDbEntity
8
0
100
AcDbCircle
10
61.5
20
-3.5000000000000004
30
0
40
1.5000000000000013
0
LINE
5
115
100
AcDbEntity
8
0
100
AcDbLine
10
58.650000776921388
20
-52.502104388587682
30
0
11
58.650000776921388
21
-55.000000000000107
31
0
0
LINE
5
116
100
AcDbEntity
8
0
100
AcDbLine
10
58.650000776921388
20
-52.502104388587682
30
0
11
62.150498165536575
21
-52.502104388587682
31
0
0
LINE
5
117
100
AcDbEntity
8
0
100
AcDbLine
10
64.347023299321464
20
-52.369775835111916
30
0
11
64.347023299321464
21
-55.007380753827697
31
0
0
LINE
5
118
100
AcDbEntity
8
0
100
AcDbLine
10
64.347023299321464
20
-52.369775835111916
30
0
11
67.98510609787445
21
-52.369775835111916
31
0
0
ARC
5
119
100
AcDbEntity
8
0
100
AcDbCircle
10
57.650000776921395
20
-55.000000000000107
30
0
40
0.99999999999999645
100
AcDbArc
50
-90
51
0
0
LINE
5
120
100
AcDbEntity
8
0
100
AcDbLine
10
65.347501064974111
20
-56.007380639697679
30
0
11
80.795741879739609
21
-56.000000000000149
31
0
0
ARC
5
121
100
AcDbEntity
8
0
100
AcDbCircle
10
65.347023299321464
20
-55.00738075382769
30
0
40
1.0000000000000053
100
AcDbArc
50
180
51
270.0273739565344
0
ARC
5
122
100
AcDbEntity
8
0
100
AcDbCircle
10
61.5
20
-52.5
30
0
40
2.8500000000000068
100
AcDbArc
50
2.6189101018173635
51
180.04230617384786
0
ARC
5
123
100
AcDbEntity
8
0
100
AcDbCircle
10
7.3499999999999952
20
-55.000000000000014
30
0
40
0.99999999999999534
100
AcDbArc
50
180
51
270.00000000000023
0
LINE
5
124
100
AcDbEntity
8
0
100
AcDbLine
10
58.650776413584545
20
-3.5665203323342731
30
0
11
58.650776413584545
21
-1.0000000000000031
31
0
0
LINE
5
125
100
AcDbEntity
8
0
100
AcDbLine
10
58.650776413584545
20
-3.5665203323342731
30
0
11
55.083284204262881
21
-3.5665203323342731
31
0
0
LINE
5
126
100
AcDbEntity
8
0
100
AcDbLine
10
64.342789948626915
20
-3.7025964165179079
30
0
11
64.342789948626915
21
-1.0000000000000031
31
0
0
ARC
5
127
100
AcDbEntity
8
0
100
AcDbCircle
10
61.5
20
-3.5000000000000004
30
0
40
2.8500000000000036
100
AcDbArc
50
181.33743173131106
51
355.92360762675548
0
LINE
5
128
100
AcDbEntity
8
0
100
AcDbLine
10
65.342789948626901
20
-1.3877787807814457e-15
30
0
11
80.795741879739609
21
-4.228126360241312e-15
31
0
0
ARC
5
129
100
AcDbEntity
8
0
100
AcDbCircle
10
65.342789948626901
20
-0.99999999999999778
30
0
40
0.99999999999999645
100
AcDbArc
50
90
51
180
0
LINE
5
130
100
AcDbEntity
8
0
100
AcDbLine
10
-2.000000000000004
20
-64.000000000000014
30
0
11
80.795741879739609
21
-64.000000000000014
31
0
0
LINE
5
131
100
AcDbEntity
8
0
100
AcDbLine
10
86.79574187973958
20
-58.000000000000014
30
0
11
86.79574187973958
21
2.0000000000000107
31
0
0
LINE
5
132
100
AcDbEntity
8
0
100
AcDbLine
10
80.795741879739595
20
7.9999999999999964
30
0
11
62.650776413584552
21
7.9999999999999982
31
0
0
LINE
5
133
100
AcDbEntity
8
0
100
AcDbLine
10
-8.0000000000000053
20
-43.332235660089765
30
0
11
-8.0000000000000053
21
-58.000000000000014
31
0
0
LINE
5
134
100
AcDbEntity
8
0
100
AcDbLine
10
-7.9999999999999982
20
-12.667764339910237
30
0
11
-7.9999999999999982
21
2.0000000000000107
31
0
0
LINE
5
135
100
AcDbEntity
8
0
100
AcDbLine
10
-2.0000000000000107
20
8.0000000000000036
30
0
11
80.79574187973958
21
7.9999999999999938
31
0
0
ARC
5
136
100
AcDbEntity
8
0
100
AcDbCircle
10
-2.0000000000000187
20
-58.000000000000028
30
0
40
5.9999999999999876
100
AcDbArc
50
180
51
270.00000000000017
0
ARC
5
137
100
AcDbEntity
8
0
100
AcDbCircle
10
-2.000000000000008
20
2.0000000000000053
30
0
40
5.9999999999999947
100
AcDbArc
50
90.000000000000043
51
180
0
ARC
5
138
100
AcDbEntity
8
0
100
AcDbCircle
10
80.795741879739623
20
-58.00000000000005
30
0
40
5.9999999999999609
100
AcDbArc
50
-90.000000000000142
51
0
0
ARC
5
139
100
AcDbEntity
8
0
100
AcDbCircle
10
80.795741879739595
20
1.9999999999999996
30
0
40
5.9999999999999964
100
AcDbArc
50
0
51
90
0
LINE
5
140
100
AcDbEntity
8
0
100
AcDbLine
10
5
20
-36.5
30
0
11
5
21
-19.5
31
0
0
LINE
5
141
100
AcDbEntity
8
0
100
AcDbLine
10
-1.3420201433256684
20
-17.191693442712783
30
0
11
-6.0260604299770044
21
-15.486842202267962
31
0
0
LINE
5
142
100
AcDbEntity
8
0
100
AcDbLine
10
-1.3420201433256658
20
-38.808306557287224
30
0
11
-6.0260604299770106
21
-40.513157797732049
31
0
0
LINE
5
143
100
AcDbEntity
8
0
100
AcDbLine
10
-1.1102230246251565e-15
20
-3.0000000000000004
30
0
11
5.5511151231257827e-16
21
-53.000000000000007
31
0
0
LINE
5
144
100
AcDbEntity
8
0
100
AcDbLine
10
-4.163336342344337e-16
20
-16.252000821926874
30
0
11
4.163336342344337e-16
21
-7.7638603398299981
31
0
0
CIRCLE
5
145
100
AcDbEntity
8
0
100
AcDbCircle
10
3.5000000000000004
20
-3.5000000000000004
30
0
40
1.5000000000000002
0
CIRCLE
5
146
100
AcDbEntity
8
0
100
AcDbCircle
10
3.5000000000000004
20
-3.5000000000000004
30
0
40
1.25
0
CIRCLE
5
147
100
AcDbEntity
8
0
100
AcDbCircle
10
3.5000000000000004
20
-3.5000000000000004
30
0
40
1.2499999999999998
0
ARC
5
148
100
AcDbEntity
8
0
100
AcDbCircle
10
61.5
20
-52.5
30
0
40
2.8500000000000068
100
AcDbArc
50
2.6189101018173635
51
180.04230617384786
0
ARC
5
149
100
AcDbEntity
8
0
100
AcDbCircle
10
61.5
20
-3.5000000000000004
30
0
40
2.8500000000000036
100
AcDbArc
50
181.33743173131106
51
355.92360762675548
0
ARC
5
150
100
AcDbEntity
8
0
100
AcDbCircle
10
61.5
20
-52.5
30
0
40
2.8500000000000068
100
AcDbArc
50
2.6189101018173635
51
180.04230617384786
0
ARC
5
151
100
AcDbEntity
8
0
100
AcDbCircle
10
61.5
20
-3.5000000000000004
30
0
40
2.8500000000000036
100
AcDbArc
50
181.33743173131106
51
355.92360762675548
0
LINE
5
152
100
AcDbEntity
8
0
100
AcDbLine
10
-7.9999999999999982
20
-58.000000000000028
30
0
11
-7.9999999999999982
21
2.0000000000000107
31
0
0
LINE
5
153
100
AcDbEntity
8
0
100
AcDbLine
10
-7.9999999999999982
20
-58.000000000000028
30
0
11
-7.9999999999999982
21
-41.231613045460634
31
0
0
LINE
5
154
100
AcDbEntity
8
0
100
AcDbLine
10
5
20
-36.5
30
0
11
-7.9999999999999982
21
-41.231613045460634
31
0
0
LINE
5
155
100
AcDbEntity
8
0
100
AcDbLine
10
-7.9999999999999982
20
-41.231613045460634
30
0
11
5
21
-36.5
31
0
0
LINE
5
156
100
AcDbEntity
8
0
100
AcDbLine
10
5
20
-36.5
30
0
11
-7.9999999999999982
21
-41.231613045460634
31
0
0
LINE
5
157
100
AcDbEntity
8
0
100
AcDbLine
10
5
20
-36.5
30
0
11
5
21
-19.5
31
0
0
LINE
5
158
100
AcDbEntity
8
0
100
AcDbLine
10
5
20
-19.5
30
0
11
-7.9999999999999982
21
-14.768386954539366
31
0
0
ARC
5
159
100
AcDbEntity
8
0
100
AcDbCircle
10
-2.0000000000000107
20
2.0000000000000151
30
0
40
5.9999999999999876
100
AcDbArc
50
90
51
180
0
LINE
5
160
100
AcDbEntity
8
0
100
AcDbLine
10
-7.9999999999999982
20
-14.768386954539366
30
0
11
-7.9999999999999982
21
2.0000000000000151
31
0
0
LINE
5
161
100
AcDbEntity
8
0
100
AcDbLine
10
5
20
-36.5
30
0
11
5
21
-19.5
31
0
0
ARC
5
162
100
AcDbEntity
8
0
100
AcDbCircle
10
-4.9999999999999938
20
-43.332235660089779
30
0
40
3.0000000000000067
100
AcDbArc
50
110.00000000000016
51
180
0
ARC
5
163
100
AcDbEntity
8
0
100
AcDbCircle
10
-5.0000000000000009
20
-12.667764339910239
30
0
40
2.9999999999999973
100
AcDbArc
50
180
51
250.00000000000003
0
ARC
5
164
100
AcDbEntity
8
0
100
AcDbCircle
10
-0.99999999999999778
20
-39.74799917807313
30
0
40
0.99999999999999822
100
AcDbArc
50
0
51
110.00000000000003
0
ARC
5
165
100
AcDbEntity
8
0
100
AcDbCircle
10
-0.99999999999999989
20
-16.252000821926874
30
0
40
0.99999999999999967
100
AcDbArc
50
-109.99999999999997
51
0
0
CIRCLE
5
166
100
AcDbEntity
8
0
100
AcDbCircle
10
72.795741879739538
20
3.9999999999999991
30
0
40
2.6500000000000004
0
CIRCLE
5
167
100
AcDbEntity
8
0
100
AcDbCircle
10
72.795741879739538
20
3.9999999999999991
30
0
40
1.4999999999999991
0
CIRCLE
5
168
100
AcDbEntity
8
0
100
AcDbCircle
10
72.379515702765985
20
-60.000000000000007
30
0
40
2.6000000000000032
0
CIRCLE
5
169
100
AcDbEntity
8
0
100
AcDbCircle
10
-2.0000000000000284
20
-58.000000000000043
30
0
40
2.6500000000000004
0
CIRCLE
5
170
100
AcDbEntity
8
0
100
AcDbCircle
10
-2.0000000000000107
20
2.0000000000000151
30
0
40
2.6500000000000004
0
LINE
5
171
100
AcDbEntity
8
0
100
AcDbLine
10
58.650776413584545
20
-1.0000000000000031
30
0
11
58.650776413584545
21
3.9999999999999907
31
0
0
ARC
5
172
100
AcDbEntity
8
0
100
AcDbCircle
10
62.650776413584566
20
3.9999999999999769
30
0
40
4.0000000000000213
100
AcDbArc
50
90.000000000000199
51
180
0
LINE
5
173
100
AcDbEntity
8
0
100
AcDbLine
10
65.342789948626901
20
-1.3877787807814457e-15
30
0
11
80.795741879739609
21
-4.228126360241312e-15
31
0
0
ARC
5
174
100
AcDbEntity
8
0
100
AcDbCircle
10
-2.0000000000000115
20
2.4374999999999964
30
0
40
5.5625000000000107
100
AcDbArc
50
-10.519254633701053
51
89.999999999999986
0
ARC
5
175
100
AcDbEntity
8
0
100
AcDbCircle
10
3.5000000000000004
20
-3.5000000000000004
30
0
40
2.850000000000076
100
AcDbArc
50
-97.351528507362573
51
62.333711781368734
0
ARC
5
176
100
AcDbEntity
8
0
100
AcDbCircle
10
2.6202201702299748
20
-10.319091547208664
30
0
40
4.0256106694665164
100
AcDbArc
50
82.648471492625433
51
122.37795337681248
0
ARC
5
177
100
AcDbEntity
8
0
100
AcDbCircle
10
1.0000000000000042
20
-7.7638603398300008
30
0
40
1.000000000000004
100
AcDbArc
50
122.37795337681261
51
180
0
ARC
5
178
100
AcDbEntity
8
0
100
AcDbCircle
10
5.3561759452618505
20
0.90648245351078383
30
0
40
1.9563008547748415
100
AcDbArc
50
164.72187896435801
51
254.19394370697356
0
LINE
5
179
100
AcDbEntity
8
0
100
AcDbLine
10
3
20
0
30
0
11
82.000000000000014
21
-8.6736173798840355e-16
31
0
0
ENDSEC
0
SECTION
2
OBJECTS
0
DICTIONARY
5
C
100
AcDbDictionary
3
ACAD_GROUP
350
D
3
ACAD_MLINESTYLE
350
17
0
DICTIONARY
5
D
100
AcDbDictionary
0
DICTIONARY
5
1A
330
C
100
AcDbDictionary
0
DICTIONARY
5
17
100
AcDbDictionary
0
ENDSEC
0
EOF
