0
SECTION
2
HEADER
9
$INSUNITS
70
4
9
$ACADVER
1
AC1014
9
$HANDSEED
5
FFFF
0
ENDSEC
0
SECTION
2
TABLES
0
TABLE
2
VPORT
5
8
100
AcDbSymbolTable
0
ENDTAB
0
TABLE
2
LTYPE
5
5
100
AcDbSymbolTable
0
LTYPE
5
14
100
AcDbSymbolTableRecord
100
AcDbLinetypeTableRecord
2
BYBLOCK
70
0
0
LTYPE
5
15
100
AcDbSymbolTableRecord
100
AcDbLinetypeTableRecord
2
BYLAYER
70
0
0
ENDTAB
0
TABLE
2
LAYER
5
2
100
AcDbSymbolTable
70
2
0
LAYER
5
50
100
AcDbSymbolTableRecord
100
AcDbLayerTableRecord
2
0
70
0
6
CONTINUOUS
0
ENDTAB
0
TABLE
2
STYLE
5
3
100
AcDbSymbolTable
70
1
0
STYLE
5
11
100
AcDbSymbolTableRecord
100
AcDbTextStyleTableRecord
2
STANDARD
70
0
0
ENDTAB
0
TABLE
2
VIEW
5
6
100
AcDbSymbolTable
70
0
0
ENDTAB
0
TABLE
2
UCS
5
7
100
AcDbSymbolTable
70
0
0
ENDTAB
0
TABLE
2
APPID
5
9
100
AcDbSymbolTable
70
2
0
APPID
5
12
100
AcDbSymbolTableRecord
100
AcDbRegAppTableRecord
2
ACAD
70
0
0
ENDTAB
0
TABLE
2
DIMSTYLE
5
A
100
AcDbSymbolTable
70
1
0
ENDTAB
0
TABLE
2
BLOCK_RECORD
5
1
100
AcDbSymbolTable
70
1
0
BLOCK_RECORD
5
1F
100
AcDbSymbolTableRecord
100
AcDbBlockTableRecord
2
*MODEL_SPACE
0
BLOCK_RECORD
5
1B
100
AcDbSymbolTableRecord
100
AcDbBlockTableRecord
2
*PAPER_SPACE
0
ENDTAB
0
ENDSEC
0
SECTION
2
BLOCKS
0
BLOCK
5
20
100
AcDbEntity
100
AcDbBlockBegin
2
*MODEL_SPACE
0
ENDBLK
5
21
100
AcDbEntity
100
AcDbBlockEnd
0
BLOCK
5
1C
100
AcDbEntity
100
AcDbBlockBegin
2
*PAPER_SPACE
0
ENDBLK
5
1D
100
AcDbEntity
100
AcDbBlockEnd
0
ENDSEC
0
SECTION
2
ENTITIES
0
LWPOLYLINE
5
100
100
AcDbEntity
8
0
100
AcDbPolyline
90
8
70
1
43
0.0
10
80.795741879739609
20
-64.000000000000014
10
-2.0000000000000102
20
-64.000000000000014
42
-0.4142135623730947
10
-8.0000000000000089
20
-58.000000000000007
10
-8.0000000000000071
20
2.0000000000000009
42
-0.41421356237309553
10
-2.0000000000000107
20
8.0000000000000036
10
80.795741879739595
20
7.9999999999999911
42
-0.41421356237309515
10
86.79574187973958
20
1.9999999999999929
10
86.79574187973958
20
-58.000000000000014
42
-0.4142135623730977
0
LINE
5
101
100
AcDbEntity
8
0
100
AcDbLine
10
-2.0000000000000036
20
-64.000000000000014
30
0
11
80.795741879739609
21
-64.000000000000014
31
0
0
LINE
5
102
100
AcDbEntity
8
0
100
AcDbLine
10
86.79574187973958
20
-58.000000000000014
30
0
11
86.79574187973958
21
2.0000000000000107
31
0
0
LINE
5
103
100
AcDbEntity
8
0
100
AcDbLine
10
-7.9999999999999982
20
-58.000000000000028
30
0
11
-8
21
-43.332235660089765
31
0
0
LINE
5
104
100
AcDbEntity
8
0
100
AcDbLine
10
-2.0000000000000098
20
8.0000000000000036
30
0
11
80.795741879739595
21
7.9999999999999964
31
0
0
LINE
5
105
100
AcDbEntity
8
0
100
AcDbLine
10
-7.9999999999999982
20
-28.000000000000004
30
0
11
86.79574187973958
21
-28.000000000000004
31
0
0
LWPOLYLINE
5
106
100
AcDbEntity
8
0
100
AcDbPolyline
90
8
70
1
43
0.0
10
82
20
-56.000000000000007
10
3
20
-56.000000000000007
42
-0.41421356237309359
10
-1.6653345369377348e-15
20
-53.000000000000007
10
0
20
-3.0000000000000018
42
-0.41421356237309703
10
3.0000000000000249
20
0
10
82
20
6.6613381477509392e-15
42
-0.41421356237309132
10
85
20
-2.9999999999999982
10
85
20
-53.000000000000007
42
-0.4142135623730907
0
LINE
5
107
100
AcDbEntity
8
0
100
AcDbLine
10
3
20
-56.000000000000007
30
0
11
81.999999999999972
21
-56.000000000000007
31
0
0
LINE
5
108
100
AcDbEntity
8
0
100
AcDbLine
10
84.999999999999986
20
-53.000000000000007
30
0
11
85
21
-2.9999999999999982
31
0
0
LINE
5
109
100
AcDbEntity
8
0
100
AcDbLine
10
0
20
-3.0000000000000009
30
0
11
-1.6653345369377348e-15
21
-53.000000000000007
31
0
0
LINE
5
110
100
AcDbEntity
8
0
100
AcDbLine
10
82
20
1.6653345369377348e-15
30
0
11
3.0000000000000071
21
-5.5511151231257827e-16
31
0
0
ARC
5
111
100
AcDbEntity
8
0
100
AcDbCircle
10
83.909262147819732
20
-57.999999999999986
30
0
40
2.8864797319198487
100
AcDbArc
50
0
51
85.786911092978301
0
LINE
5
112
100
AcDbEntity
8
0
100
AcDbLine
10
3
20
0
30
0
11
82.000000000000014
21
-8.6736173798840355e-16
31
0
0
LINE
5
113
100
AcDbEntity
8
0
100
AcDbLine
10
-2.0000000000000107
20
8.0000000000000036
30
0
11
80.79574187973958
21
7.9999999999999938
31
0
0
ARC
5
114
100
AcDbEntity
8
0
100
AcDbCircle
10
83.980834316516635
20
1.9999999999999933
30
0
40
2.8149075632229632
100
AcDbArc
50
225.27584777546397
51
360
0
ARC
5
115
100
AcDbEntity
8
0
100
AcDbCircle
10
-2.0000000000000098
20
2.4374999999999956
30
0
40
5.5625000000000071
100
AcDbArc
50
-25.989233583832906
51
90
0
LINE
5
116
100
AcDbEntity
8
0
100
AcDbLine
10
3
20
0
30
0
11
82.000000000000014
21
-8.6736173798840355e-16
31
0
0
ARC
5
117
100
AcDbEntity
8
0
100
AcDbCircle
10
62.504635525650983
20
3.9999999999999964
30
0
40
3.9999999999999969
100
AcDbArc
50
89.999999999999801
51
270.00000000000023
0
CIRCLE
5
118
100
AcDbEntity
8
0
100
AcDbCircle
10
-2.0000000000000284
20
-58.000000000000043
30
0
40
2.6500000000000004
0
CIRCLE
5
119
100
AcDbEntity
8
0
100
AcDbCircle
10
72.379515702765985
20
-60.000000000000007
30
0
40
2.6500000000000004
0
CIRCLE
5
120
100
AcDbEntity
8
0
100
AcDbCircle
10
72.795741879739538
20
3.9999999999999991
30
0
40
2.6500000000000004
0
CIRCLE
5
121
100
AcDbEntity
8
0
100
AcDbCircle
10
-2.0000000000000107
20
2.0000000000000151
30
0
40
2.6500000000000004
0
ENDSEC
0
SECTION
2
OBJECTS
0
DICTIONARY
5
C
100
AcDbDictionary
3
ACAD_GROUP
350
D
3
ACAD_MLINESTYLE
350
17
0
DICTIONARY
5
D
100
AcDbDictionary
0
DICTIONARY
5
1A
330
C
100
AcDbDictionary
0
DICTIONARY
5
17
100
AcDbDictionary
0
ENDSEC
0
EOF
