0
SECTION
2
HEADER
9
$INSUNITS
70
4
9
$ACADVER
1
AC1014
9
$HANDSEED
5
FFFF
0
ENDSEC
0
SECTION
2
TABLES
0
TABLE
2
VPORT
5
8
100
AcDbSymbolTable
0
ENDTAB
0
TABLE
2
LTYPE
5
5
100
AcDbSymbolTable
0
LTYPE
5
14
100
AcDbSymbolTableRecord
100
AcDbLinetypeTableRecord
2
BYBLOCK
70
0
0
LTYPE
5
15
100
AcDbSymbolTableRecord
100
AcDbLinetypeTableRecord
2
BYLAYER
70
0
0
ENDTAB
0
TABLE
2
LAYER
5
2
100
AcDbSymbolTable
70
2
0
LAYER
5
50
100
AcDbSymbolTableRecord
100
AcDbLayerTableRecord
2
0
70
0
6
CONTINUOUS
0
ENDTAB
0
TABLE
2
STYLE
5
3
100
AcDbSymbolTable
70
1
0
STYLE
5
11
100
AcDbSymbolTableRecord
100
AcDbTextStyleTableRecord
2
STANDARD
70
0
0
ENDTAB
0
TABLE
2
VIEW
5
6
100
AcDbSymbolTable
70
0
0
ENDTAB
0
TABLE
2
UCS
5
7
100
AcDbSymbolTable
70
0
0
ENDTAB
0
TABLE
2
APPID
5
9
100
AcDbSymbolTable
70
2
0
APPID
5
12
100
AcDbSymbolTableRecord
100
AcDbRegAppTableRecord
2
ACAD
70
0
0
ENDTAB
0
TABLE
2
DIMSTYLE
5
A
100
AcDbSymbolTable
70
1
0
ENDTAB
0
TABLE
2
BLOCK_RECORD
5
1
100
AcDbSymbolTable
70
1
0
BLOCK_RECORD
5
1F
100
AcDbSymbolTableRecord
100
AcDbBlockTableRecord
2
*MODEL_SPACE
0
BLOCK_RECORD
5
1B
100
AcDbSymbolTableRecord
100
AcDbBlockTableRecord
2
*PAPER_SPACE
0
ENDTAB
0
ENDSEC
0
SECTION
2
BLOCKS
0
BLOCK
5
20
100
AcDbEntity
100
AcDbBlockBegin
2
*MODEL_SPACE
0
ENDBLK
5
21
100
AcDbEntity
100
AcDbBlockEnd
0
BLOCK
5
1C
100
AcDbEntity
100
AcDbBlockBegin
2
*PAPER_SPACE
0
ENDBLK
5
1D
100
AcDbEntity
100
AcDbBlockEnd
0
ENDSEC
0
SECTION
2
ENTITIES
0
LINE
5
100
100
AcDbEntity
8
0
100
AcDbLine
10
80.79574187973958
20
63.999999999999993
30
0
11
-1.9999999999999929
21
64
31
0
0
LINE
5
101
100
AcDbEntity
8
0
100
AcDbLine
10
86.79574187973958
20
27.999999999999993
30
2.2204460492503131e-15
11
-8.68045711358997
21
28.000000000000007
31
2.2204460492503131e-15
0
LINE
5
102
100
AcDbEntity
8
0
100
AcDbLine
10
-8.6804571135899664
20
28.000000000000007
30
0
11
63.616371131321252
21
28.000000000000014
31
0
0
CIRCLE
5
103
100
AcDbEntity
8
0
100
AcDbCircle
10
-2.0000000000000107
20
-2.0000000000000151
30
2.2204460492503131e-15
40
1.5000000000000004
0
CIRCLE
5
104
100
AcDbEntity
8
0
100
AcDbCircle
10
-2.0000000000000107
20
-2.0000000000000151
30
0
40
1.5000000000000004
0
CIRCLE
5
105
100
AcDbEntity
8
0
100
AcDbCircle
10
72.795741879739538
20
-3.9999999999999991
30
2.2204460492503131e-15
40
1.4999999999999991
0
CIRCLE
5
106
100
AcDbEntity
8
0
100
AcDbCircle
10
72.795741879739538
20
-3.9999999999999991
30
0
40
1.4999999999999967
0
CIRCLE
5
107
100
AcDbEntity
8
0
100
AcDbCircle
10
72.379515702765985
20
60.000000000000007
30
2.2204460492503131e-15
40
1.5000000000000016
0
CIRCLE
5
108
100
AcDbEntity
8
0
100
AcDbCircle
10
72.379515702765985
20
60.000000000000007
30
0
40
1.5000000000000024
0
CIRCLE
5
109
100
AcDbEntity
8
0
100
AcDbCircle
10
-2.0000000000000284
20
58.000000000000043
30
2.2204460492503131e-15
40
1.4999999999999991
0
CIRCLE
5
110
100
AcDbEntity
8
0
100
AcDbCircle
10
-2.0000000000000284
20
58.000000000000043
30
0
40
1.4999999999999969
0
ARC
5
111
100
AcDbEntity
8
0
100
AcDbCircle
10
-1.999999999999994
20
-1.9999999999999969
30
0
40
6.0000000000000036
100
AcDbArc
50
180
51
269.99999999999983
0
ARC
5
112
100
AcDbEntity
8
0
100
AcDbCircle
10
80.795741879739595
20
-2.0000000000000107
30
0
40
5.9999999999999964
100
AcDbArc
50
270.00000000000017
51
360
0
ARC
5
113
100
AcDbEntity
8
0
100
AcDbCircle
10
80.795741879739623
20
58.000000000000036
30
0
40
5.9999999999999609
100
AcDbArc
50
0
51
90.00000000000027
0
ARC
5
114
100
AcDbEntity
8
0
100
AcDbCircle
10
-2.0000000000000062
20
58.000000000000014
30
0
40
5.9999999999999876
100
AcDbArc
50
89.999999999999929
51
180
0
ARC
5
115
100
AcDbEntity
8
0
100
AcDbCircle
10
81.999999999999972
20
52.999999999999972
30
0
40
3.000000000000032
100
AcDbArc
50
45.000000000000185
51
89.99999999999946
0
ARC
5
116
100
AcDbEntity
8
0
100
AcDbCircle
10
3.0000000000000107
20
53
30
0
40
3.0000000000000071
100
AcDbArc
50
90.000000000000185
51
180
0
ARC
5
117
100
AcDbEntity
8
0
100
AcDbCircle
10
3.0000000000000027
20
3.0000000000000027
30
0
40
3.0000000000000027
100
AcDbArc
50
180
51
270.00000000000011
0
ARC
5
118
100
AcDbEntity
8
0
100
AcDbCircle
10
82
20
2.9999999999999849
30
0
40
2.9999999999999911
100
AcDbArc
50
270
51
313.22365961500935
0
ARC
5
119
100
AcDbEntity
8
0
100
AcDbCircle
10
80.795741879739595
20
-2.0000000000000027
30
0
40
5.9999999999999964
100
AcDbArc
50
-90
51
0
0
ARC
5
120
100
AcDbEntity
8
0
100
AcDbCircle
10
-2.0000000000000107
20
-2.0000000000000151
30
0
40
5.9999999999999876
100
AcDbArc
50
180
51
270.00000000000023
0
ARC
5
121
100
AcDbEntity
8
0
100
AcDbCircle
10
-2.0000000000000284
20
58.000000000000043
30
0
40
5.9999999999999609
100
AcDbArc
50
89.999999999999659
51
180
0
ARC
5
122
100
AcDbEntity
8
0
100
AcDbCircle
10
80.795741879739623
20
58.000000000000036
30
0
40
5.9999999999999609
100
AcDbArc
50
0
51
90.000000000000398
0
LINE
5
123
100
AcDbEntity
8
0
100
AcDbLine
10
-8.0000000000000036
20
58.000000000000007
30
0
11
-7.9999999999999982
21
-2.0000000000000018
31
0
0
LINE
5
124
100
AcDbEntity
8
0
100
AcDbLine
10
0
20
3.0000000000000009
30
0
11
-1.6653345369377348e-15
21
53.000000000000007
31
0
0
LINE
5
125
100
AcDbEntity
8
0
100
AcDbLine
10
-1.9999999999999984
20
64
30
0
11
80.795741879739595
21
64
31
0
0
LINE
5
126
100
AcDbEntity
8
0
100
AcDbLine
10
-7.9999999999999973
20
-1.9999999999999993
30
0
11
-7.9999999999999938
21
58
31
0
0
LINE
5
127
100
AcDbEntity
8
0
100
AcDbLine
10
80.79574187973958
20
64
30
2.2204460492503131e-15
11
-2.0000000000000107
21
64
31
2.2204460492503131e-15
0
LINE
5
128
100
AcDbEntity
8
0
100
AcDbLine
10
-2.0000000000000107
20
-8.0000000000000036
30
2.2204460492503131e-15
11
80.79574187973958
21
-7.9999999999999938
31
2.2204460492503131e-15
0
LINE
5
129
100
AcDbEntity
8
0
100
AcDbLine
10
-7.9999999999999982
20
58.000000000000028
30
2.2204460492503131e-15
11
-7.9999999999999982
21
-2.0000000000000107
31
2.2204460492503131e-15
0
LINE
5
130
100
AcDbEntity
8
0
100
AcDbLine
10
-1.9999999999999927
20
-8.0000000000000036
30
0
11
80.795741879739595
21
-7.9999999999999991
31
0
0
LINE
5
131
100
AcDbEntity
8
0
100
AcDbLine
10
86.79574187973958
20
58.000000000000007
30
0
11
86.79574187973958
21
-2.0000000000000195
31
0
0
SPLINE
5
132
100
AcDbEntity
8
0
100
AcDbSpline
70
1064
71
5
72
16
73
10
74
0
42
0.000000001
43
0.0000000001
44
0.0000000001
40
0
40
0
40
0
40
0
40
0
40
0
40
0.20000000000000001
40
0.40000000000000002
40
0.60000000000000009
40
0.80000000000000004
40
1
40
1
40
1
40
1
40
1
40
1
10
29.588915446394264
20
56.000000000000007
30
0
10
33.975831961941665
20
56.000000000000007
30
0
10
42.039046579228369
20
55.961804009613076
30
0
10
52.003948887996685
20
55.789752856193857
30
0
10
61.633719643648213
20
55.126840362714148
30
0
10
69.723301155326865
20
52.149554434342839
30
0
10
74.418269227141252
20
46.260568107875848
30
0
10
77.388793352207259
20
38.681303506270801
30
0
10
79.162057467959542
20
31.981899797383775
30
0
10
79.996909886037002
20
28.220179132507113
30
0
0
LINE
5
133
100
AcDbEntity
8
0
100
AcDbLine
10
78.166501271640499
20
36.46775773162468
30
0
11
81.82733118186124
21
19.972603347825153
31
0
0
LINE
5
134
100
AcDbEntity
8
0
100
AcDbLine
10
18.997705395995574
20
56.000000000000007
30
0
11
40.180125496792954
21
56.000000000000014
31
0
0
LINE
5
135
100
AcDbEntity
8
0
100
AcDbLine
10
3.0000000000000004
20
56.000000000000007
30
0
11
29.588915446394264
21
56.000000000000007
31
0
0
LINE
5
136
100
AcDbEntity
8
0
100
AcDbLine
10
3.0000000000000071
20
8.8817841970012523e-15
30
0
11
29.588915446394253
21
0
31
0
0
SPLINE
5
137
100
AcDbEntity
8
0
100
AcDbSpline
70
1064
71
5
72
16
73
10
74
0
42
0.000000001
43
0.0000000001
44
0.0000000001
40
0
40
0
40
0
40
0
40
0
40
0
40
0.20000000000000001
40
0.40000000000000002
40
0.60000000000000009
40
0.80000000000000004
40
1
40
1
40
1
40
1
40
1
40
1
10
29.588915446394253
20
0
30
0
10
33.975831961941651
20
-3.6788663047888413e-15
30
0
10
42.039046579228298
20
0.038195990386990973
30
0
10
52.00394888799628
20
0.21024714380684534
30
0
10
61.633719643647574
20
0.87315963728675872
30
0
10
69.723301155326268
20
3.8504455656578167
30
0
10
74.418269227140939
20
9.7394318921243119
30
0
10
77.388793352207202
20
17.318696493729163
30
0
10
79.162057467959542
20
24.018100202616143
30
0
10
79.996909886036988
20
27.779820867492809
30
0
0
LINE
5
138
100
AcDbEntity
8
0
100
AcDbLine
10
18.997705395995563
20
0
30
0
11
40.180125496792947
21
-1.7763568394002505e-14
31
0
0
LINE
5
139
100
AcDbEntity
8
0
100
AcDbLine
10
78.166501271640513
20
19.532242268375313
30
0
11
81.82733118186124
21
36.027396652174836
31
0
0
ARC
5
140
100
AcDbEntity
8
0
100
AcDbCircle
10
79.021450430391383
20
27.999999999999964
30
0
40
1.0000000000000173
100
AcDbArc
50
-12.719554522404621
51
12.719554522404051
0
LINE
5
141
100
AcDbEntity
8
0
100
AcDbLine
10
7.3186651851160489
20
45.982658971010451
30
0
11
63.669854213801713
21
45.982658971010451
31
0
0
LINE
5
142
100
AcDbEntity
8
0
100
AcDbLine
10
63.669854213801713
20
45.982658971010451
30
0
11
63.669854213801713
21
10.01734102898955
31
4.4408920985006262e-15
0
LINE
5
143
100
AcDbEntity
8
0
100
AcDbLine
10
63.669854213801713
20
10.01734102898955
30
4.4408920985006262e-15
11
7.3186651851160489
21
10.01734102898955
31
0
0
LINE
5
144
100
AcDbEntity
8
0
100
AcDbLine
10
7.3186651851160489
20
10.01734102898955
30
0
11
7.3186651851160489
21
45.982658971010451
31
0
0
LINE
5
145
100
AcDbEntity
8
0
100
AcDbLine
10
7.3186651851160489
20
45.982658971010451
30
0
11
63.669854213801713
21
10.01734102898955
31
4.4408920985006262e-15
0
LINE
5
146
100
AcDbEntity
8
0
100
AcDbLine
10
63.669854213801713
20
45.982658971010451
30
0
11
7.3186651851160489
21
10.01734102898955
31
0
0
ARC
5
147
100
AcDbEntity
8
0
100
AcDbCircle
10
35.494259699458901
20
136.15492009136153
30
0
40
94.471693124413974
100
AcDbArc
50
255.93468591512689
51
287.35215075545636
0
ARC
5
148
100
AcDbEntity
8
0
100
AcDbCircle
10
-36.986629881394371
20
19.692880827502371
30
7.923821172606798e-14
40
50.487159147954856
100
AcDbArc
50
9.4704694703346597
51
24.184728160791035
0
LINE
5
149
100
AcDbEntity
8
0
100
AcDbLine
10
35.49425969945888
20
28.000000000000004
30
2.2204460492503131e-15
11
35.49425969945888
21
45.982658971010451
31
0
0
ARC
5
150
100
AcDbEntity
8
0
100
AcDbCircle
10
11.805926340626765
20
41.605494798445186
30
-5.6852859515332621e-16
40
2.999999999999996
100
AcDbArc
50
75.934685915127062
51
204.1847281607912
0
ARC
5
151
100
AcDbEntity
8
0
100
AcDbCircle
10
35.494259699458809
20
136.15492009136153
30
0
40
94.471693124413974
100
AcDbArc
50
252.64784924454369
51
284.06531408487314
0
LINE
5
152
100
AcDbEntity
8
0
100
AcDbLine
10
63.669854213801713
20
45.982658971010473
30
0
11
7.3186651851160622
21
10.017341028989538
31
4.4408920985006262e-15
0
ARC
5
153
100
AcDbEntity
8
0
100
AcDbCircle
10
107.97514928031217
20
19.692880827502414
30
7.923821172606798e-14
40
50.487159147954863
100
AcDbArc
50
155.81527183920903
51
170.52953052966544
0
ARC
5
154
100
AcDbEntity
8
0
100
AcDbCircle
10
59.182593058290998
20
41.605494798445193
30
-5.685285951533264e-16
40
3.0000000000000124
100
AcDbArc
50
-24.184728160790971
51
104.06531408487312
0
ARC
5
155
100
AcDbEntity
8
0
100
AcDbCircle
10
35.494259699458937
20
136.15492009136079
30
0
40
94.471693124413477
100
AcDbArc
50
255.93468591512672
51
284.06531408487314
0
ARC
5
156
100
AcDbEntity
8
0
100
AcDbCircle
10
59.182593058290998
20
14.394505201554804
30
-5.685285951533264e-16
40
2.9999999999999982
100
AcDbArc
50
-104.06531408487311
51
24.184728160790989
0
ARC
5
157
100
AcDbEntity
8
0
100
AcDbCircle
10
107.97514928031217
20
36.307119172497572
30
7.923821172606798e-14
40
50.48715914795487
100
AcDbArc
50
189.47046947033456
51
204.18472816079097
0
LINE
5
158
100
AcDbEntity
8
0
100
AcDbLine
10
35.49425969945888
20
28
30
2.2204460492503131e-15
11
35.494259699458873
21
10.017341028989545
31
0
0
ARC
5
159
100
AcDbEntity
8
0
100
AcDbCircle
10
35.494259699458908
20
-80.154920091360822
30
0
40
94.47169312441325
100
AcDbArc
50
75.934685915126806
51
104.06531408487324
0
ARC
5
160
100
AcDbEntity
8
0
100
AcDbCircle
10
11.805926340626769
20
14.394505201554825
30
-5.685285951533264e-16
40
3.000000000000024
100
AcDbArc
50
155.81527183920878
51
284.06531408487263
0
ARC
5
161
100
AcDbEntity
8
0
100
AcDbCircle
10
-36.986629881394357
20
36.30711917249765
30
7.923821172606798e-14
40
50.487159147954834
100
AcDbArc
50
335.81527183920889
51
350.52953052966535
0
CIRCLE
5
162
100
AcDbEntity
8
0
100
AcDbCircle
10
10.274484942256908
20
39.447357361993042
30
0
40
1.3999999999999977
0
CIRCLE
5
163
100
AcDbEntity
8
0
100
AcDbCircle
10
60.578982063695399
20
16.6184088691314
30
0
40
1.399999999999999
0
ENDSEC
0
SECTION
2
OBJECTS
0
DICTIONARY
5
C
100
AcDbDictionary
3
ACAD_GROUP
350
D
3
ACAD_MLINESTYLE
350
17
0
DICTIONARY
5
D
100
AcDbDictionary
0
DICTIONARY
5
1A
330
C
100
AcDbDictionary
0
DICTIONARY
5
17
100
AcDbDictionary
0
ENDSEC
0
EOF
