0
SECTION
2
HEADER
9
$INSUNITS
70
4
9
$ACADVER
1
AC1014
9
$HANDSEED
5
FFFF
0
ENDSEC
0
SECTION
2
TABLES
0
TABLE
2
VPORT
5
8
100
AcDbSymbolTable
0
ENDTAB
0
TABLE
2
LTYPE
5
5
100
AcDbSymbolTable
0
LTYPE
5
14
100
AcDbSymbolTableRecord
100
AcDbLinetypeTableRecord
2
BYBLOCK
70
0
0
LTYPE
5
15
100
AcDbSymbolTableRecord
100
AcDbLinetypeTableRecord
2
BYLAYER
70
0
0
ENDTAB
0
TABLE
2
LAYER
5
2
100
AcDbSymbolTable
70
2
0
LAYER
5
50
100
AcDbSymbolTableRecord
100
AcDbLayerTableRecord
2
0
70
0
6
CONTINUOUS
0
ENDTAB
0
TABLE
2
STYLE
5
3
100
AcDbSymbolTable
70
1
0
STYLE
5
11
100
AcDbSymbolTableRecord
100
AcDbTextStyleTableRecord
2
STANDARD
70
0
0
ENDTAB
0
TABLE
2
VIEW
5
6
100
AcDbSymbolTable
70
0
0
ENDTAB
0
TABLE
2
UCS
5
7
100
AcDbSymbolTable
70
0
0
ENDTAB
0
TABLE
2
APPID
5
9
100
AcDbSymbolTable
70
2
0
APPID
5
12
100
AcDbSymbolTableRecord
100
AcDbRegAppTableRecord
2
ACAD
70
0
0
ENDTAB
0
TABLE
2
DIMSTYLE
5
A
100
AcDbSymbolTable
70
1
0
ENDTAB
0
TABLE
2
BLOCK_RECORD
5
1
100
AcDbSymbolTable
70
1
0
BLOCK_RECORD
5
1F
100
AcDbSymbolTableRecord
100
AcDbBlockTableRecord
2
*MODEL_SPACE
0
BLOCK_RECORD
5
1B
100
AcDbSymbolTableRecord
100
AcDbBlockTableRecord
2
*PAPER_SPACE
0
ENDTAB
0
ENDSEC
0
SECTION
2
BLOCKS
0
BLOCK
5
20
100
AcDbEntity
100
AcDbBlockBegin
2
*MODEL_SPACE
0
ENDBLK
5
21
100
AcDbEntity
100
AcDbBlockEnd
0
BLOCK
5
1C
100
AcDbEntity
100
AcDbBlockBegin
2
*PAPER_SPACE
0
ENDBLK
5
1D
100
AcDbEntity
100
AcDbBlockEnd
0
ENDSEC
0
SECTION
2
ENTITIES
0
LINE
5
100
100
AcDbEntity
8
0
100
AcDbLine
10
80.795741879739595
20
7.9999999999999991
30
0
11
-1.9999999999999938
21
8.0000000000000036
31
0
0
LINE
5
101
100
AcDbEntity
8
0
100
AcDbLine
10
-2.0000000000000071
20
-64
30
0
11
80.795741879739609
21
-63.999999999999986
31
0
0
LINE
5
102
100
AcDbEntity
8
0
100
AcDbLine
10
86.79574187973958
20
-57.999999999999986
30
0
11
86.79574187973958
21
2.0000000000000018
31
0
0
LINE
5
103
100
AcDbEntity
8
0
100
AcDbLine
10
-2.0000000000000107
20
8.0000000000000036
30
0
11
80.79574187973958
21
7.9999999999999938
31
0
0
LINE
5
104
100
AcDbEntity
8
0
100
AcDbLine
10
86.79574187973958
20
1.9999999999999929
30
0
11
86.79574187973958
21
-58.000000000000007
31
0
0
LINE
5
105
100
AcDbEntity
8
0
100
AcDbLine
10
80.79574187973958
20
-64
30
0
11
-2.0000000000000107
21
-64
31
0
0
LINE
5
106
100
AcDbEntity
8
0
100
AcDbLine
10
0
20
-53.000000000000007
30
0
11
0
21
-2.9999999999999982
31
0
0
ARC
5
107
100
AcDbEntity
8
0
100
AcDbCircle
10
-2.0000000000000151
20
-58.000000000000007
30
0
40
5.9999999999999964
100
AcDbArc
50
180
51
270.00000000000011
0
ARC
5
108
100
AcDbEntity
8
0
100
AcDbCircle
10
80.795741879739609
20
-58.000000000000007
30
0
40
5.9999999999999787
100
AcDbArc
50
-90
51
0
0
ARC
5
109
100
AcDbEntity
8
0
100
AcDbCircle
10
80.795741879739595
20
2.0000000000000027
30
0
40
5.9999999999999964
100
AcDbArc
50
0
51
90
0
ARC
5
110
100
AcDbEntity
8
0
100
AcDbCircle
10
-1.9999999999999791
20
1.9999999999999829
30
0
40
6.0000000000000213
100
AcDbArc
50
90.000000000000142
51
180
0
CIRCLE
5
111
100
AcDbEntity
8
0
100
AcDbCircle
10
-2.0000000000000284
20
-58.000000000000043
30
0
40
1.4999999999999991
0
CIRCLE
5
112
100
AcDbEntity
8
0
100
AcDbCircle
10
-2.0000000000000284
20
-58.000000000000043
30
0
40
1.4999999999999991
0
CIRCLE
5
113
100
AcDbEntity
8
0
100
AcDbCircle
10
72.379515702765985
20
-60.000000000000007
30
0
40
1.5000000000000036
0
CIRCLE
5
114
100
AcDbEntity
8
0
100
AcDbCircle
10
72.379515702765985
20
-60.000000000000007
30
0
40
1.5000000000000016
0
CIRCLE
5
115
100
AcDbEntity
8
0
100
AcDbCircle
10
-2.0000000000000107
20
2.0000000000000151
30
0
40
1.5000000000000004
0
CIRCLE
5
116
100
AcDbEntity
8
0
100
AcDbCircle
10
-2.0000000000000107
20
2.0000000000000151
30
0
40
1.5000000000000004
0
CIRCLE
5
117
100
AcDbEntity
8
0
100
AcDbCircle
10
72.795741879739538
20
3.9999999999999991
30
0
40
1.4999999999999947
0
CIRCLE
5
118
100
AcDbEntity
8
0
100
AcDbCircle
10
72.795741879739538
20
3.9999999999999991
30
0
40
1.4999999999999991
0
LINE
5
119
100
AcDbEntity
8
0
100
AcDbLine
10
5
20
-34.399377385370876
30
0
11
5
21
-21.600622614629131
31
0
0
LINE
5
120
100
AcDbEntity
8
0
100
AcDbLine
10
-6.0260604299770035
20
-40.513157797732049
30
0
11
3.0260604299770066
21
-37.218455247728599
31
0
0
LINE
5
121
100
AcDbEntity
8
0
100
AcDbLine
10
5
20
-36.5
30
0
11
5
21
-19.5
31
0
0
LINE
5
122
100
AcDbEntity
8
0
100
AcDbLine
10
-7.9999999999999991
20
-12.667764339910237
30
0
11
-7.9999999999999982
21
2.0000000000000151
31
0
0
LINE
5
123
100
AcDbEntity
8
0
100
AcDbLine
10
-7.9999999999999982
20
-58.000000000000028
30
0
11
-7.9999999999999982
21
-43.332235660089765
31
0
0
LINE
5
124
100
AcDbEntity
8
0
100
AcDbLine
10
3.0260604299770053
20
-18.781544752271412
30
0
11
-6.026060429977008
21
-15.486842202267962
31
0
0
LINE
5
125
100
AcDbEntity
8
0
100
AcDbLine
10
-7.9999999999999982
20
-14.768386954539366
30
0
11
-7.9999999999999982
21
2.0000000000000107
31
0
0
ARC
5
126
100
AcDbEntity
8
0
100
AcDbCircle
10
-4.999999999999984
20
-43.332235660089779
30
0
40
3.0000000000000075
100
AcDbArc
50
110.0000000000002
51
180
0
ARC
5
127
100
AcDbEntity
8
0
100
AcDbCircle
10
1.9999999999999956
20
-34.399377385370869
30
0
40
3.0000000000000049
100
AcDbArc
50
290.00000000000006
51
360
0
ARC
5
128
100
AcDbEntity
8
0
100
AcDbCircle
10
1.9999999999999982
20
-21.600622614629135
30
0
40
3.0000000000000018
100
AcDbArc
50
0
51
69.999999999999972
0
ARC
5
129
100
AcDbEntity
8
0
100
AcDbCircle
10
-5.0000000000000018
20
-12.667764339910239
30
0
40
2.9999999999999973
100
AcDbArc
50
180
51
249.99999999999997
0
CIRCLE
5
130
100
AcDbEntity
8
0
100
AcDbCircle
10
61.5
20
-52.5
30
0
40
1.4999999999999991
0
CIRCLE
5
131
100
AcDbEntity
8
0
100
AcDbCircle
10
3.5000000000000004
20
-52.5
30
0
40
1.4999999999999967
0
CIRCLE
5
132
100
AcDbEntity
8
0
100
AcDbCircle
10
3.5000000000000004
20
-3.5000000000000004
30
0
40
1.5000000000000002
0
CIRCLE
5
133
100
AcDbEntity
8
0
100
AcDbCircle
10
61.5
20
-3.5000000000000004
30
0
40
1.5
0
LINE
5
134
100
AcDbEntity
8
0
100
AcDbLine
10
86.79574187973958
20
-27.999999999999993
30
0
11
-7.9999999999999982
21
-28.000000000000007
31
0
0
LWPOLYLINE
5
135
100
AcDbEntity
8
0
100
AcDbPolyline
90
4
70
1
43
0.0
10
6.887483454195813
20
-58.278327403005292
10
62.8362129692715
20
-58.278327403005299
10
62.8362129692715
20
-61.778327403005299
10
6.887483454195813
20
-61.778327403005299
0
LINE
5
136
100
AcDbEntity
8
0
100
AcDbLine
10
30.839723807311152
20
-24.327606404950174
30
0
11
30.839723807311152
21
-8.3468376343221351
31
0
0
LWPOLYLINE
5
137
100
AcDbEntity
8
0
100
AcDbPolyline
90
8
70
1
43
0.0
10
35.840879717999549
20
-18.979632491680324
10
35.840879717999556
20
-24.321893644397868
42
0.41674483091816916
10
37.353831382932889
20
-25.821837728147475
10
38.842366517851687
20
-24.321881543164508
42
-0.41197665418911367
10
38.842366517851687
20
-18.979620954565746
10
37.32998392606288
20
-17.479672064963008
42
-0.41663351340840643
10
37.329984926062878
20
-17.47967206496299
10
37.32998392606288
20
-17.47967206496299
42
0.41208760476564926
0
LINE
5
138
100
AcDbEntity
8
0
100
AcDbLine
10
25.839778444217643
20
-24.447657743696904
30
0
11
25.839778444217639
21
-2.5006064762384472
31
0
0
ARC
5
139
100
AcDbEntity
8
0
100
AcDbCircle
10
32.339723807311159
20
-8.3468376343221262
30
0
40
1.5000000000000091
100
AcDbArc
50
89.578023165887458
51
180
0
ARC
5
140
100
AcDbEntity
8
0
100
AcDbCircle
10
27.339778444217604
20
-24.447657743696904
30
0
40
1.4999999999999591
100
AcDbArc
50
180
51
270.02306822011332
0
LINE
5
141
100
AcDbEntity
8
0
100
AcDbLine
10
28.839723807311145
20
-2.5006064930139527
30
0
11
28.839723807311145
21
-24.447657766689627
31
0
0
LWPOLYLINE
5
142
100
AcDbEntity
8
0
100
AcDbPolyline
90
8
70
1
43
0.0
10
38.842366517851687
20
-31.686111145805832
10
38.842366517851701
20
-37.028371734404587
42
-0.41663351340840721
10
37.329983926062873
20
-38.52832062400735
10
35.840879717999549
20
-37.028360197290013
42
0.41208760476564843
10
35.840879717999556
20
-31.686099044572469
10
37.353831382932889
20
-30.186154960822865
42
0.41674483091816916
10
37.353832382932886
20
-30.186154960822865
10
37.353831382932889
20
-30.186154960822861
42
-0.41197665418911367
0
LINE
5
143
100
AcDbEntity
8
0
100
AcDbLine
10
32.350771035124374
20
-49.161114373682452
30
0
11
32.350771035124374
21
-49.161114373682452
31
0
0
LINE
5
144
100
AcDbEntity
8
0
100
AcDbLine
10
27.339290571610295
20
-55.007386133392011
30
0
11
27.339290571610295
21
-55.007386133392011
31
0
0
LINE
5
145
100
AcDbEntity
8
0
100
AcDbLine
10
33.840879717999542
20
-47.661146986755121
30
0
11
33.840879717999535
21
-31.68037628078174
31
0
0
LINE
5
146
100
AcDbEntity
8
0
100
AcDbLine
10
25.839778444217643
20
-31.560334945273432
30
0
11
25.839778444217636
21
-53.507386212731888
31
0
0
LINE
5
147
100
AcDbEntity
8
0
100
AcDbLine
10
30.839723807311152
20
-31.680386284020162
30
0
11
30.839723807311149
21
-47.661155054648205
31
0
0
LINE
5
148
100
AcDbEntity
8
0
100
AcDbLine
10
27.340382368791616
20
-30.060335066848431
30
0
11
27.340382368791616
21
-30.060335066848431
31
0
0
LINE
5
149
100
AcDbEntity
8
0
100
AcDbLine
10
32.327321266095041
20
-30.180437559239461
30
0
11
32.327321266095041
21
-30.180437559239461
31
0
0
LINE
5
150
100
AcDbEntity
8
0
100
AcDbLine
10
28.839723807311142
20
-53.507386195956386
30
0
11
28.839723807311145
21
-31.56033492228071
31
0
0
LINE
5
151
100
AcDbEntity
8
0
100
AcDbLine
10
27.339290571610299
20
-1.0006065555783294
30
0
11
27.339290571610299
21
-1.0006065555783294
31
0
0
ARC
5
152
100
AcDbEntity
8
0
100
AcDbCircle
10
32.340879717999528
20
-8.3468457022152176
30
0
40
1.5000000000000169
100
AcDbArc
50
0
51
89.622176778392969
0
LINE
5
153
100
AcDbEntity
8
0
100
AcDbLine
10
33.840879717999549
20
-8.3468457022152176
30
0
11
33.840879717999535
21
-24.3276164081886
31
0
0
LINE
5
154
100
AcDbEntity
8
0
100
AcDbLine
10
32.327321266095041
20
-25.827555129730875
30
0
11
32.327321266095041
21
-25.827555129730875
31
0
0
ARC
5
155
100
AcDbEntity
8
0
100
AcDbCircle
10
27.339723807311124
20
-24.447657766689627
30
0
40
1.5000000000000293
100
AcDbArc
50
-89.974844803603787
51
0
0
ARC
5
156
100
AcDbEntity
8
0
100
AcDbCircle
10
27.339723807311131
20
-2.5006064930139615
30
0
40
1.5000000000000169
100
AcDbArc
50
0
51
90.016548385024791
0
ARC
5
157
100
AcDbEntity
8
0
100
AcDbCircle
10
27.33977844421765
20
-2.5006064762384295
30
0
40
1.4999999999999958
100
AcDbArc
50
90.018635361222735
51
180
0
LINE
5
158
100
AcDbEntity
8
0
100
AcDbLine
10
32.350771035124374
20
-6.8468783152878832
30
0
11
32.350771035124374
21
-6.8468783152878832
31
0
0
ARC
5
159
100
AcDbEntity
8
0
100
AcDbCircle
10
27.339778444217643
20
-53.507386212731909
30
0
40
1.500000000000008
100
AcDbArc
50
180
51
269.98136463877739
0
ARC
5
160
100
AcDbEntity
8
0
100
AcDbCircle
10
27.339723807311124
20
-53.507386195956379
30
0
40
1.5000000000000244
100
AcDbArc
50
269.98345161497537
51
360
0
ARC
5
161
100
AcDbEntity
8
0
100
AcDbCircle
10
27.339723807311124
20
-31.56033492228071
30
0
40
1.5000000000000213
100
AcDbArc
50
0
51
89.974844803603816
0
ARC
5
162
100
AcDbEntity
8
0
100
AcDbCircle
10
27.339778444217604
20
-31.560334945273432
30
0
40
1.4999999999999734
100
AcDbArc
50
89.976931779886684
51
180
0
ARC
5
163
100
AcDbEntity
8
0
100
AcDbCircle
10
32.339723807311159
20
-47.661155054648212
30
0
40
1.500000000000008
100
AcDbArc
50
180
51
270.42197683411251
0
ARC
5
164
100
AcDbEntity
8
0
100
AcDbCircle
10
32.340879717999528
20
-47.661146986755121
30
0
40
1.5000000000000266
100
AcDbArc
50
-89.622176778392955
51
0
0
ARC
5
165
100
AcDbEntity
8
0
100
AcDbCircle
10
32.340879717999556
20
-31.68037628078174
30
0
40
1.4999999999999769
100
AcDbArc
50
0
51
90.517901766419428
0
ARC
5
166
100
AcDbEntity
8
0
100
AcDbCircle
10
32.339723807311117
20
-31.680386284020166
30
0
40
1.4999999999999614
100
AcDbArc
50
90.473747576071318
51
180
0
ARC
5
167
100
AcDbEntity
8
0
100
AcDbCircle
10
32.339723807311117
20
-24.327606404950171
30
0
40
1.4999999999999636
100
AcDbArc
50
180
51
269.52625242392867
0
ARC
5
168
100
AcDbEntity
8
0
100
AcDbCircle
10
32.340879717999556
20
-24.3276164081886
30
0
40
1.4999999999999767
100
AcDbArc
50
-90.517901766419428
51
0
0
LINE
5
169
100
AcDbEntity
8
0
100
AcDbLine
10
27.340382368791616
20
-25.947657622121909
30
0
11
27.340382368791616
21
-25.947657622121909
31
0
0
ENDSEC
0
SECTION
2
OBJECTS
0
DICTIONARY
5
C
100
AcDbDictionary
3
ACAD_GROUP
350
D
3
ACAD_MLINESTYLE
350
17
0
DICTIONARY
5
D
100
AcDbDictionary
0
DICTIONARY
5
1A
330
C
100
AcDbDictionary
0
DICTIONARY
5
17
100
AcDbDictionary
0
ENDSEC
0
EOF
