0
SECTION
2
HEADER
9
$INSUNITS
70
4
9
$ACADVER
1
AC1014
9
$HANDSEED
5
FFFF
0
ENDSEC
0
SECTION
2
TABLES
0
TABLE
2
VPORT
5
8
100
AcDbSymbolTable
0
ENDTAB
0
TABLE
2
LTYPE
5
5
100
AcDbSymbolTable
0
LTYPE
5
14
100
AcDbSymbolTableRecord
100
AcDbLinetypeTableRecord
2
BYBLOCK
70
0
0
LTYPE
5
15
100
AcDbSymbolTableRecord
100
AcDbLinetypeTableRecord
2
BYLAYER
70
0
0
ENDTAB
0
TABLE
2
LAYER
5
2
100
AcDbSymbolTable
70
2
0
LAYER
5
50
100
AcDbSymbolTableRecord
100
AcDbLayerTableRecord
2
0
70
0
6
CONTINUOUS
0
ENDTAB
0
TABLE
2
STYLE
5
3
100
AcDbSymbolTable
70
1
0
STYLE
5
11
100
AcDbSymbolTableRecord
100
AcDbTextStyleTableRecord
2
STANDARD
70
0
0
ENDTAB
0
TABLE
2
VIEW
5
6
100
AcDbSymbolTable
70
0
0
ENDTAB
0
TABLE
2
UCS
5
7
100
AcDbSymbolTable
70
0
0
ENDTAB
0
TABLE
2
APPID
5
9
100
AcDbSymbolTable
70
2
0
APPID
5
12
100
AcDbSymbolTableRecord
100
AcDbRegAppTableRecord
2
ACAD
70
0
0
ENDTAB
0
TABLE
2
DIMSTYLE
5
A
100
AcDbSymbolTable
70
1
0
ENDTAB
0
TABLE
2
BLOCK_RECORD
5
1
100
AcDbSymbolTable
70
1
0
BLOCK_RECORD
5
1F
100
AcDbSymbolTableRecord
100
AcDbBlockTableRecord
2
*MODEL_SPACE
0
BLOCK_RECORD
5
1B
100
AcDbSymbolTableRecord
100
AcDbBlockTableRecord
2
*PAPER_SPACE
0
ENDTAB
0
ENDSEC
0
SECTION
2
BLOCKS
0
BLOCK
5
20
100
AcDbEntity
100
AcDbBlockBegin
2
*MODEL_SPACE
0
ENDBLK
5
21
100
AcDbEntity
100
AcDbBlockEnd
0
BLOCK
5
1C
100
AcDbEntity
100
AcDbBlockBegin
2
*PAPER_SPACE
0
ENDBLK
5
1D
100
AcDbEntity
100
AcDbBlockEnd
0
ENDSEC
0
SECTION
2
ENTITIES
0
ARC
5
100
100
AcDbEntity
8
0
100
AcDbCircle
10
83.909262147819675
20
58.000000000000071
30
0
40
2.8864797319199114
100
AcDbArc
50
274.21308890702272
51
360
0
ARC
5
101
100
AcDbEntity
8
0
100
AcDbCircle
10
80.795741879739623
20
58.000000000000036
30
0
40
5.9999999999999609
100
AcDbArc
50
0
51
90.000000000000398
0
LINE
5
102
100
AcDbEntity
8
0
100
AcDbLine
10
80.79574187973958
20
63.999999999999993
30
0
11
-1.9999999999999929
21
64
31
0
0
ARC
5
103
100
AcDbEntity
8
0
100
AcDbCircle
10
-2.0000000000000284
20
58.000000000000043
30
0
40
5.9999999999999609
100
AcDbArc
50
89.999999999999659
51
180
0
LINE
5
104
100
AcDbEntity
8
0
100
AcDbLine
10
-8.0000000000000036
20
58.000000000000007
30
0
11
-7.9999999999999982
21
-2.0000000000000018
31
0
0
ARC
5
105
100
AcDbEntity
8
0
100
AcDbCircle
10
-2.0000000000000107
20
-2.0000000000000151
30
0
40
5.9999999999999876
100
AcDbArc
50
180
51
270.00000000000023
0
LINE
5
106
100
AcDbEntity
8
0
100
AcDbLine
10
-1.9999999999999927
20
-8.0000000000000036
30
0
11
80.795741879739595
21
-7.9999999999999991
31
0
0
ARC
5
107
100
AcDbEntity
8
0
100
AcDbCircle
10
80.795741879739595
20
-2.0000000000000027
30
0
40
5.9999999999999964
100
AcDbArc
50
-90
51
0
0
ARC
5
108
100
AcDbEntity
8
0
100
AcDbCircle
10
83.980834316516635
20
-1.9999999999999793
30
0
40
2.8149075632229525
100
AcDbArc
50
0
51
88.499507390473411
0
ARC
5
109
100
AcDbEntity
8
0
100
AcDbCircle
10
82
20
2.9999999999999849
30
0
40
2.9999999999999911
100
AcDbArc
50
270
51
313.22365961500935
0
ARC
5
110
100
AcDbEntity
8
0
100
AcDbCircle
10
3.0000000000000027
20
3.0000000000000027
30
0
40
3.0000000000000027
100
AcDbArc
50
180
51
270.00000000000011
0
LINE
5
111
100
AcDbEntity
8
0
100
AcDbLine
10
0
20
3.0000000000000009
30
0
11
-1.6653345369377348e-15
21
53.000000000000007
31
0
0
ARC
5
112
100
AcDbEntity
8
0
100
AcDbCircle
10
3.0000000000000107
20
53
30
0
40
3.0000000000000071
100
AcDbArc
50
90.000000000000185
51
180
0
ARC
5
113
100
AcDbEntity
8
0
100
AcDbCircle
10
81.999999999999972
20
52.999999999999972
30
0
40
3.000000000000032
100
AcDbArc
50
45.000000000000185
51
89.99999999999946
0
LINE
5
114
100
AcDbEntity
8
0
100
AcDbLine
10
-1.9999999999999984
20
64
30
0
11
80.795741879739595
21
64
31
0
0
LINE
5
115
100
AcDbEntity
8
0
100
AcDbLine
10
86.79574187973958
20
58.000000000000007
30
0
11
86.79574187973958
21
-2.0000000000000195
31
0
0
LINE
5
116
100
AcDbEntity
8
0
100
AcDbLine
10
-7.9999999999999973
20
-1.9999999999999993
30
0
11
-7.9999999999999938
21
58
31
0
0
LINE
5
117
100
AcDbEntity
8
0
100
AcDbLine
10
80.79574187973958
20
64
30
2.2204460492503131e-15
11
-2.0000000000000107
21
64
31
2.2204460492503131e-15
0
LINE
5
118
100
AcDbEntity
8
0
100
AcDbLine
10
86.79574187973958
20
-1.9999999999999929
30
2.2204460492503131e-15
11
86.79574187973958
21
58.000000000000007
31
2.2204460492503131e-15
0
LINE
5
119
100
AcDbEntity
8
0
100
AcDbLine
10
-2.0000000000000107
20
-8.0000000000000036
30
2.2204460492503131e-15
11
80.79574187973958
21
-7.9999999999999938
31
2.2204460492503131e-15
0
LINE
5
120
100
AcDbEntity
8
0
100
AcDbLine
10
-7.9999999999999982
20
58.000000000000028
30
2.2204460492503131e-15
11
-7.9999999999999982
21
-2.0000000000000107
31
2.2204460492503131e-15
0
ARC
5
121
100
AcDbEntity
8
0
100
AcDbCircle
10
-2.0000000000000062
20
58.000000000000014
30
0
40
5.9999999999999876
100
AcDbArc
50
89.999999999999929
51
180
0
ARC
5
122
100
AcDbEntity
8
0
100
AcDbCircle
10
80.795741879739623
20
58.000000000000036
30
0
40
5.9999999999999609
100
AcDbArc
50
0
51
90.00000000000027
0
ARC
5
123
100
AcDbEntity
8
0
100
AcDbCircle
10
80.795741879739595
20
-2.0000000000000107
30
0
40
5.9999999999999964
100
AcDbArc
50
270.00000000000017
51
360
0
ARC
5
124
100
AcDbEntity
8
0
100
AcDbCircle
10
-1.999999999999994
20
-1.9999999999999969
30
0
40
6.0000000000000036
100
AcDbArc
50
180
51
269.99999999999983
0
CIRCLE
5
125
100
AcDbEntity
8
0
100
AcDbCircle
10
-2.0000000000000284
20
58.000000000000043
30
0
40
1.4999999999999969
0
CIRCLE
5
126
100
AcDbEntity
8
0
100
AcDbCircle
10
-2.0000000000000284
20
58.000000000000043
30
2.2204460492503131e-15
40
1.4999999999999991
0
CIRCLE
5
127
100
AcDbEntity
8
0
100
AcDbCircle
10
72.379515702765985
20
60.000000000000007
30
0
40
1.5000000000000024
0
CIRCLE
5
128
100
AcDbEntity
8
0
100
AcDbCircle
10
72.379515702765985
20
60.000000000000007
30
2.2204460492503131e-15
40
1.5000000000000016
0
CIRCLE
5
129
100
AcDbEntity
8
0
100
AcDbCircle
10
72.795741879739538
20
-3.9999999999999991
30
0
40
1.4999999999999967
0
CIRCLE
5
130
100
AcDbEntity
8
0
100
AcDbCircle
10
72.795741879739538
20
-3.9999999999999991
30
2.2204460492503131e-15
40
1.4999999999999991
0
CIRCLE
5
131
100
AcDbEntity
8
0
100
AcDbCircle
10
-2.0000000000000107
20
-2.0000000000000151
30
0
40
1.5000000000000004
0
CIRCLE
5
132
100
AcDbEntity
8
0
100
AcDbCircle
10
-2.0000000000000107
20
-2.0000000000000151
30
2.2204460492503131e-15
40
1.5000000000000004
0
LINE
5
133
100
AcDbEntity
8
0
100
AcDbLine
10
86.79574187973958
20
27.999999999999993
30
2.2204460492503131e-15
11
-8.0000000000000071
21
28.000000000000007
31
2.2204460492503131e-15
0
LINE
5
134
100
AcDbEntity
8
0
100
AcDbLine
10
-7.9999999999999982
20
28.000000000000007
30
0
11
64.719481881316568
21
28
31
0
0
LINE
5
135
100
AcDbEntity
8
0
100
AcDbLine
10
21.780803311451539
20
55.003389788906844
30
0
11
21.780803311451539
21
55.003389788906844
31
0
0
LINE
5
136
100
AcDbEntity
8
0
100
AcDbLine
10
23.281236547152385
20
53.503389851471219
30
0
11
23.281236547152385
21
31.556338577795543
31
0
0
LINE
5
137
100
AcDbEntity
8
0
100
AcDbLine
10
21.781895108632856
20
30.056338722363265
30
0
11
21.781895108632856
21
30.056338722363265
31
0
0
LINE
5
138
100
AcDbEntity
8
0
100
AcDbLine
10
20.281291184058887
20
31.556338600788266
30
0
11
20.28129118405888
21
53.503389868246728
31
0
0
ARC
5
139
100
AcDbEntity
8
0
100
AcDbCircle
10
21.781291184058887
20
53.503389868246742
30
0
40
1.4999999999999958
100
AcDbArc
50
90.018635361222607
51
180
0
ARC
5
140
100
AcDbEntity
8
0
100
AcDbCircle
10
21.781236547152368
20
53.503389851471212
30
0
40
1.5000000000000169
100
AcDbArc
50
0
51
90.016548385024663
0
ARC
5
141
100
AcDbEntity
8
0
100
AcDbCircle
10
21.781236547152364
20
31.556338577795543
30
0
40
1.5000000000000293
100
AcDbArc
50
-89.974844803603787
51
0
0
ARC
5
142
100
AcDbEntity
8
0
100
AcDbCircle
10
21.781291184058844
20
31.556338600788266
30
0
40
1.4999999999999591
100
AcDbArc
50
180
51
270.02306822011332
0
LINE
5
143
100
AcDbEntity
8
0
100
AcDbLine
10
26.792283774965618
20
49.157118029197292
30
0
11
26.792283774965618
21
49.157118029197292
31
0
0
LINE
5
144
100
AcDbEntity
8
0
100
AcDbLine
10
28.282392457840789
20
47.657150642269954
30
0
11
28.282392457840775
21
31.676379936296573
31
0
0
LINE
5
145
100
AcDbEntity
8
0
100
AcDbLine
10
26.768834005936281
20
30.176441214754295
30
0
11
26.768834005936281
21
30.176441214754295
31
0
0
LINE
5
146
100
AcDbEntity
8
0
100
AcDbLine
10
25.281236547152393
20
31.676389939534996
30
0
11
25.281236547152393
21
47.657158710163039
31
0
0
ARC
5
147
100
AcDbEntity
8
0
100
AcDbCircle
10
26.7812365471524
20
47.657158710163046
30
0
40
1.5000000000000091
100
AcDbArc
50
89.57802316588733
51
180
0
ARC
5
148
100
AcDbEntity
8
0
100
AcDbCircle
10
26.782392457840771
20
47.657150642269954
30
0
40
1.5000000000000169
100
AcDbArc
50
0
51
89.622176778392969
0
ARC
5
149
100
AcDbEntity
8
0
100
AcDbCircle
10
26.7823924578408
20
31.676379936296573
30
0
40
1.4999999999999767
100
AcDbArc
50
-90.51790176641957
51
0
0
ARC
5
150
100
AcDbEntity
8
0
100
AcDbCircle
10
26.781236547152357
20
31.676389939534999
30
0
40
1.4999999999999636
100
AcDbArc
50
180
51
269.52625242392867
0
LINE
5
151
100
AcDbEntity
8
0
100
AcDbLine
10
31.771496665904117
20
38.524324279522176
30
0
11
31.771496665904117
21
38.524324279522176
31
0
0
LINE
5
152
100
AcDbEntity
8
0
100
AcDbLine
10
33.283879257692924
20
37.024375389919427
30
0
11
33.283879257692924
21
31.682114801320665
31
0
0
LINE
5
153
100
AcDbEntity
8
0
100
AcDbLine
10
31.795344122774129
20
30.182158616337698
30
0
11
31.795344122774129
21
30.182158616337698
31
0
0
LINE
5
154
100
AcDbEntity
8
0
100
AcDbLine
10
30.2823924578408
20
31.682102700087302
30
0
11
30.282392457840789
21
37.024363852804846
31
0
0
ARC
5
155
100
AcDbEntity
8
0
100
AcDbCircle
10
31.782392457840775
20
37.024363852804846
30
0
40
1.4999999999999878
100
AcDbArc
50
90.416192254976067
51
180
0
ARC
5
156
100
AcDbEntity
8
0
100
AcDbCircle
10
31.783879257692945
20
37.024375389919413
30
0
40
1.4999999999999813
100
AcDbArc
50
0
51
90.472985538074056
0
ARC
5
157
100
AcDbEntity
8
0
100
AcDbCircle
10
31.783879257692934
20
31.682114801320655
30
0
40
1.4999999999999862
100
AcDbArc
50
-89.562070148120128
51
0
0
ARC
5
158
100
AcDbEntity
8
0
100
AcDbCircle
10
31.782392457840785
20
31.682102700087306
30
0
40
1.4999999999999858
100
AcDbArc
50
180
51
270.49472330626344
0
LINE
5
159
100
AcDbEntity
8
0
100
AcDbLine
10
33.283879257692924
20
18.97562461008058
30
0
11
33.283879257692924
21
24.317885198679342
31
0
0
LINE
5
160
100
AcDbEntity
8
0
100
AcDbLine
10
30.2823924578408
20
24.317897299912701
30
0
11
30.282392457840789
21
18.975636147195157
31
0
0
LINE
5
161
100
AcDbEntity
8
0
100
AcDbLine
10
26.792283774965611
20
6.8428819708027167
30
0
11
26.792283774965611
21
6.8428819708027167
31
0
0
LINE
5
162
100
AcDbEntity
8
0
100
AcDbLine
10
31.771496665904113
20
17.475675720477824
30
0
11
31.771496665904113
21
17.475675720477824
31
0
0
LINE
5
163
100
AcDbEntity
8
0
100
AcDbLine
10
31.795344122774129
20
25.817841383662309
30
0
11
31.795344122774129
21
25.817841383662309
31
0
0
ARC
5
164
100
AcDbEntity
8
0
100
AcDbCircle
10
31.782392457840785
20
24.317897299912698
30
0
40
1.5000000000000002
100
AcDbArc
50
89.505276693736548
51
180
0
ARC
5
165
100
AcDbEntity
8
0
100
AcDbCircle
10
31.783879257692934
20
24.317885198679349
30
0
40
1.4999999999999902
100
AcDbArc
50
0
51
89.562070148120156
0
ARC
5
166
100
AcDbEntity
8
0
100
AcDbCircle
10
31.783879257692945
20
18.975624610080594
30
0
40
1.4999999999999964
100
AcDbArc
50
269.52701446192577
51
360
0
ARC
5
167
100
AcDbEntity
8
0
100
AcDbCircle
10
31.782392457840775
20
18.975636147195157
30
0
40
1.4999999999999858
100
AcDbArc
50
180
51
269.58380774502382
0
ARC
5
168
100
AcDbEntity
8
0
100
AcDbCircle
10
26.781236547152357
20
24.323610060465004
30
0
40
1.4999999999999614
100
AcDbArc
50
90.473747576071318
51
180
0
ARC
5
169
100
AcDbEntity
8
0
100
AcDbCircle
10
26.7823924578408
20
24.323620063703434
30
0
40
1.4999999999999769
100
AcDbArc
50
0
51
90.51790176641957
0
ARC
5
170
100
AcDbEntity
8
0
100
AcDbCircle
10
26.782392457840768
20
8.3428493577300511
30
0
40
1.5000000000000266
100
AcDbArc
50
-89.622176778393097
51
0
0
ARC
5
171
100
AcDbEntity
8
0
100
AcDbCircle
10
26.781236547152396
20
8.3428412898369597
30
0
40
1.500000000000008
100
AcDbArc
50
180
51
270.42197683411251
0
ARC
5
172
100
AcDbEntity
8
0
100
AcDbCircle
10
21.781291184058844
20
24.443661399211738
30
0
40
1.4999999999999734
100
AcDbArc
50
89.976931779886684
51
180
0
ARC
5
173
100
AcDbEntity
8
0
100
AcDbCircle
10
21.781236547152364
20
24.44366142220446
30
0
40
1.5000000000000213
100
AcDbArc
50
0
51
89.974844803603816
0
ARC
5
174
100
AcDbEntity
8
0
100
AcDbCircle
10
21.781236547152364
20
2.496610148528795
30
0
40
1.5000000000000244
100
AcDbArc
50
269.98345161497537
51
360
0
ARC
5
175
100
AcDbEntity
8
0
100
AcDbCircle
10
21.781291184058883
20
2.496610131753263
30
0
40
1.500000000000008
100
AcDbArc
50
180
51
269.98136463877739
0
LINE
5
176
100
AcDbEntity
8
0
100
AcDbLine
10
21.780803311451535
20
0.99661021109316295
30
0
11
21.780803311451535
21
0.99661021109316295
31
0
0
LINE
5
177
100
AcDbEntity
8
0
100
AcDbLine
10
28.282392457840785
20
8.3428493577300511
30
0
11
28.282392457840775
21
24.323620063703434
31
0
0
LINE
5
178
100
AcDbEntity
8
0
100
AcDbLine
10
20.281291184058887
20
24.443661399211738
30
0
11
20.281291184058876
21
2.4966101317532807
31
0
0
LINE
5
179
100
AcDbEntity
8
0
100
AcDbLine
10
25.281236547152393
20
24.323610060465008
30
0
11
25.281236547152389
21
8.3428412898369686
31
0
0
LINE
5
180
100
AcDbEntity
8
0
100
AcDbLine
10
21.781895108632856
20
25.943661277636743
30
0
11
21.781895108632856
21
25.943661277636743
31
0
0
LINE
5
181
100
AcDbEntity
8
0
100
AcDbLine
10
26.768834005936281
20
25.823558785245709
30
0
11
26.768834005936281
21
25.823558785245709
31
0
0
LINE
5
182
100
AcDbEntity
8
0
100
AcDbLine
10
23.281236547152382
20
2.4966101485287862
30
0
11
23.281236547152385
21
24.44366142220446
31
0
0
ENDSEC
0
SECTION
2
OBJECTS
0
DICTIONARY
5
C
100
AcDbDictionary
3
ACAD_GROUP
350
D
3
ACAD_MLINESTYLE
350
17
0
DICTIONARY
5
D
100
AcDbDictionary
0
DICTIONARY
5
1A
330
C
100
AcDbDictionary
0
DICTIONARY
5
17
100
AcDbDictionary
0
ENDSEC
0
EOF
